<svg width="454" height="388" viewBox="0 0 454 388" fill="none" xmlns="http://www.w3.org/2000/svg">
<path d="M152.784 279.725C152.784 279.682 152.777 279.636 152.774 279.59C152.774 279.562 152.77 279.533 152.767 279.505L152.784 279.728V279.725Z" fill="#0A4833"/>
<path d="M152.827 276.643C152.827 276.615 152.831 276.586 152.834 276.558C152.834 276.512 152.841 276.466 152.845 276.42L152.827 276.643Z" fill="#0A4833"/>
<path d="M172.365 212.453C172.379 210.98 172.383 209.503 172.383 208.03C172.383 206.557 172.383 205.081 172.365 203.608C172.361 203.186 172.147 202.121 172.322 201.774C162.131 221.865 152.778 249.371 152.481 272.358C152.456 274.207 152.43 276.058 152.416 277.914C152.463 278.021 152.556 278.232 152.556 278.232C152.556 278.357 152.692 279.161 152.717 278.729C152.717 278.729 152.792 277.163 152.835 276.559C152.835 276.587 152.831 276.616 152.828 276.645L152.846 276.419C152.846 276.466 152.838 276.512 152.835 276.559C154.169 259.531 159.301 242.965 166.049 227.528C168.007 223.052 170.111 218.641 172.322 214.283C172.483 213.965 172.365 212.635 172.365 212.449V212.453Z" fill="#0A4833"/>
<path d="M453.948 317.192C453.969 315.408 453.977 313.621 453.973 311.837C453.973 310.053 453.973 308.265 453.948 306.481C453.944 306.099 453.651 304.497 453.884 304.261C445.428 312.698 435.005 319.476 424.152 325.547C413.603 331.445 402.536 336.672 391.078 341.194C368.006 350.296 343.376 356.542 318.207 359.688C293.188 362.816 267.085 363.23 242.137 359.387C229.688 357.471 217.422 354.297 206.24 349.209C196.156 344.623 187.204 338.452 179.782 331.066C165.315 316.67 156.806 298.345 153.786 279.705C153.418 277.435 153.139 275.158 152.931 272.873C152.935 272.93 152.938 272.988 152.945 273.038L152.92 272.766C152.92 272.802 152.928 272.837 152.931 272.87C152.906 272.541 152.881 272.13 152.86 271.69C152.849 271.672 152.831 271.633 152.831 271.633L152.62 271.229C152.62 271.229 152.484 270.971 152.419 270.843C152.351 278.218 152.462 285.611 153.497 292.925C154.366 299.092 155.837 305.202 157.909 311.161C161.988 322.887 168.429 334.087 177.367 343.708C186.717 353.771 198.708 361.697 212.477 366.956C227.645 372.751 244.234 375.428 260.74 376.544C293.678 378.771 327.149 375.346 358.663 366.981C374.353 362.816 389.586 357.407 404.085 350.825C418.749 344.169 433.262 336.447 445.496 326.823C448.463 324.489 451.268 322.018 453.887 319.405C454.095 319.198 453.952 317.146 453.952 317.185L453.948 317.192Z" fill="#CAA064"/>
<path d="M110.947 387.522C110.944 387.347 110.94 387.172 110.937 386.997C110.937 387.254 110.944 387.429 110.947 387.522Z" fill="black"/>
<path d="M111.04 386.653C111.04 386.603 111.048 386.553 111.048 386.5C111.04 386.596 111.033 386.692 111.026 386.785C111.026 386.739 111.037 386.696 111.04 386.65V386.653Z" fill="black"/>
<path d="M89.8578 152.719C93.8511 140.128 98.85 127.858 104.411 115.882C109.502 104.921 115.167 94.2072 121.694 84.0257C128.167 73.9264 135.498 64.3491 143.889 55.7584C148.008 51.5436 152.359 47.4145 157.068 43.8574C161.022 40.8687 165.903 38.2983 170.934 37.9766C176.255 37.6334 180.363 40.7257 181.644 45.8987C181.754 46.3456 181.84 46.796 181.916 47.2464C181.969 46.8067 182.016 46.3634 182.059 45.9201C182.166 44.8298 182.234 43.7358 182.291 42.6383C182.366 41.1905 182.427 41.7088 182.459 43.0387C182.438 41.8411 182.413 40.6471 182.391 39.453C182.288 34.0477 181.966 27.1766 176.316 24.5597C171.639 22.3933 165.985 24.3166 161.727 26.5796C156.592 29.3073 152.195 33.4399 148.004 37.4081C129.759 54.6824 116.362 76.3967 105.652 98.9476C94.7636 121.874 85.4315 146.541 82.254 172.059C83.1772 171.591 84.0968 171.112 85.0129 170.626C86.3547 164.588 87.9935 158.614 89.8614 152.722L89.8578 152.719Z" fill="#0A4833"/>
<path d="M174.981 202.471C175.403 202.16 175.829 201.853 176.248 201.538C184.699 180.61 194.558 160.251 204.541 140.02C216.66 115.46 228.97 90.8215 242.878 67.2124C249.18 56.5161 255.989 46.2309 263.775 37.0719C267.711 32.4423 271.93 28.0486 276.478 24.0125C280.618 20.3374 285.019 16.8018 290.394 15.1359C295.167 13.6558 300.621 14.0813 303.573 18.6143C305.011 20.8272 305.669 23.5084 306.085 26.111C306.317 24.4522 306.467 22.797 306.575 21.1239C306.632 20.2552 306.689 21.4278 306.725 23.2296C306.739 19.8477 306.725 16.4479 306.274 13.1017C305.537 7.61414 303.626 1.34723 297.407 0.199664C292.09 -0.779876 286.458 2.0086 282.243 4.99012C277.237 8.52933 272.735 12.9837 268.545 17.4346C250.493 36.6 238.223 60.495 226.028 83.5786C212.456 109.279 199.288 135.469 187.079 162.196C180.259 177.121 173.99 192.032 168.798 206.929C168.901 206.858 169.005 206.779 169.109 206.708C171.084 205.32 173.038 203.905 174.977 202.471H174.981Z" fill="#0A4833"/>
<path d="M80.8905 198.056C80.9049 197.702 80.9299 197.345 80.9478 196.991C81.0301 195.404 81.1303 193.816 81.2663 192.233C81.4058 190.617 81.6062 188.647 81.8996 186.334C81.5203 186.53 81.1374 186.727 80.7581 186.92C80.6222 191.081 80.6114 194.531 80.6508 198.693C80.6758 198.746 80.7009 199.518 80.7224 199.572C80.7581 199.518 80.7868 199.447 80.7868 199.347C80.7868 199.347 80.8655 198.646 80.8905 198.056Z" fill="#0A4833"/>
<path d="M306.728 22.1571C306.689 20.3196 306.628 19.1398 306.574 20.1051C306.471 21.8568 306.285 23.6014 306.048 25.3388C306.027 25.4961 306.006 25.6499 305.98 25.8072C303.923 38.8665 298.205 51.4504 292.172 63.1119C280.6 85.4876 265.718 106.369 250.267 126.217C235.553 145.122 219.523 163.05 201.843 179.238C193.67 186.724 185.132 193.827 176.247 200.462C175.263 201.195 174.251 201.889 173.327 202.704C172.136 203.755 170.801 204.616 169.431 205.421C169.209 205.549 169.009 205.707 168.801 205.85C160.9 211.384 152.738 216.542 144.304 221.24C134.428 226.742 123.994 232.236 112.597 233.563C107.42 234.163 102.013 233.816 97.2145 231.646C92.2336 229.394 88.4335 225.362 86.011 220.507C83.5169 215.509 81.8602 208.277 81.3163 204.437C81.1911 203.558 80.7867 198.264 80.7867 198.264C80.7867 198.979 80.5935 199.651 80.6472 200.469C80.6651 202.407 80.6901 202.557 80.7223 204.495C80.8297 211.03 81.2376 217.636 82.515 224.057C83.6207 229.627 85.51 235.247 89.1384 239.708C92.6236 243.994 97.5616 246.744 102.983 247.695C114.365 249.689 126.184 245.003 136.128 239.905C144.92 235.4 153.443 230.388 161.695 224.961C162.128 224.675 162.564 224.396 162.993 224.11C164.693 222.977 166.389 221.837 168.064 220.668C168.318 220.493 168.565 220.31 168.819 220.135C169.234 219.846 169.642 219.545 170.057 219.256C189.734 205.32 207.693 189.047 224.081 171.39C241.06 153.101 256.397 133.331 270.506 112.765C278.328 101.364 285.813 89.6954 292.168 77.4011C298.448 65.2533 304.495 52.0152 306.224 38.3303C306.582 35.481 306.678 32.6175 306.703 29.7503C306.796 28.9031 306.782 24.824 306.725 22.1428L306.728 22.1571Z" fill="#CAA064"/>
<path d="M0.21547 121.677C0.229783 122.049 0.244096 122.421 0.261987 122.793C0.269143 121.28 0.2763 120.247 0.251252 119.207C0.226204 119.489 0.208313 119.74 0.208313 119.922C0.208313 120.508 0.208313 121.091 0.211891 121.677H0.21547Z" fill="#CBA35E"/>
<path d="M182.13 45.0979C182.123 44.3221 182.112 43.6071 182.098 43.0387C182.062 41.7088 182.005 41.1904 181.93 42.6383C181.872 43.7322 181.804 44.8262 181.697 45.9201C181.654 46.3634 181.604 46.8031 181.554 47.2464C181.217 50.0993 180.699 52.9306 180.044 55.7263C177.196 67.8633 171.878 79.4211 165.899 90.314C155.093 110.001 140.88 127.798 124.173 142.809C112.243 153.53 98.9213 163.05 84.6512 170.626C83.7352 171.112 82.8156 171.587 81.8924 172.059C77.0904 174.504 72.1846 176.728 67.1929 178.701C56.29 183.009 43.5514 186.184 32.0831 182.151C20.6148 178.119 13.6014 167.154 8.70281 156.651C6.11932 151.11 4.0976 145.308 2.66988 139.366C1.9435 136.338 1.3674 133.274 0.948742 130.189C0.730469 128.591 0.558713 126.982 0.429896 125.374C0.361909 124.541 0.308235 123.704 0.265296 122.868C0.265296 122.846 0.265296 122.821 0.265296 122.8C0.254562 124.469 0.322548 122.721 0.276031 125.71C0.315392 123.036 0.225936 124.358 0.215201 121.684C0.215201 121.616 0.208044 121.552 0.208044 121.484C0.129323 119.614 0.276031 119.629 0.254562 119.214C0.333283 118.317 0.465678 117.094 0.168684 116.644C0.161527 116.558 0.154371 116.472 0.150792 116.39C0.122166 116.715 0.111432 117.04 0.11501 117.366C-0.0173856 126.157 -0.249972 135.062 0.862864 143.806C1.72164 150.556 3.33544 157.212 5.66488 163.608C9.77987 174.919 16.2064 187.707 26.9412 194.067C37.9157 200.566 51.3949 198.543 62.8811 194.607C68.9892 192.512 74.9577 189.888 80.7581 186.931C81.1409 186.738 81.5202 186.541 81.8995 186.345C86.3902 184.014 90.7808 181.497 95.0496 178.877C115.052 166.597 132.857 150.767 147.439 132.388C154.728 123.2 161.215 113.373 166.758 103.041C172.905 91.5903 178.355 79.3854 180.781 66.5548C182.112 59.505 182.227 52.2871 182.13 45.1122V45.0979Z" fill="#CAA064"/>
</svg>
