<svg width="430" height="367" viewBox="0 0 430 367" fill="none" xmlns="http://www.w3.org/2000/svg">
<path d="M144.388 264.595C144.388 264.555 144.381 264.511 144.377 264.467C144.377 264.44 144.374 264.413 144.371 264.385L144.388 264.599V264.595Z" fill="#0A4833"/>
<path d="M144.428 261.68C144.428 261.653 144.432 261.626 144.435 261.599C144.435 261.555 144.442 261.511 144.445 261.467L144.428 261.68Z" fill="#0A4833"/>
<path d="M162.891 200.96C162.905 199.567 162.908 198.171 162.908 196.777C162.908 195.384 162.908 193.988 162.891 192.594C162.888 192.195 162.685 191.188 162.851 190.86C153.22 209.864 144.38 235.882 144.1 257.626C144.076 259.374 144.052 261.126 144.039 262.881C144.083 262.982 144.171 263.182 144.171 263.182C144.171 263.3 144.299 264.061 144.323 263.652C144.323 263.652 144.394 262.171 144.435 261.599C144.435 261.626 144.431 261.653 144.428 261.68L144.445 261.467C144.445 261.511 144.438 261.555 144.435 261.599C145.696 245.493 150.545 229.822 156.923 215.221C158.772 210.987 160.761 206.814 162.851 202.692C163.003 202.391 162.891 201.133 162.891 200.957V200.96Z" fill="#3B6D5C"/>
<path d="M428.999 300.034C429.019 298.347 429.026 296.656 429.022 294.969C429.022 293.281 429.022 291.59 428.999 289.903C428.995 289.541 428.718 288.026 428.938 287.803C420.947 295.784 411.097 302.195 400.84 307.937C390.871 313.517 380.412 318.46 369.584 322.738C347.78 331.348 324.504 337.255 300.718 340.231C277.074 343.19 252.406 343.582 228.829 339.947C217.065 338.134 205.473 335.132 194.905 330.32C185.376 325.981 176.915 320.144 169.902 313.158C156.23 299.54 148.188 282.206 145.334 264.575C144.986 262.428 144.722 260.273 144.526 258.113C144.53 258.167 144.533 258.221 144.54 258.268L144.516 258.011C144.516 258.045 144.523 258.079 144.526 258.109C144.502 257.798 144.479 257.409 144.459 256.993C144.448 256.976 144.431 256.939 144.431 256.939L144.232 256.557C144.232 256.557 144.103 256.314 144.043 256.192C143.978 263.168 144.083 270.161 145.06 277.08C145.882 282.913 147.272 288.692 149.23 294.329C153.085 305.421 159.172 316.016 167.619 325.115C176.455 334.635 187.787 342.132 200.799 347.106C215.134 352.587 230.811 355.12 246.41 356.175C277.538 358.282 309.169 355.042 338.95 347.13C353.779 343.19 368.174 338.074 381.876 331.848C395.734 325.552 409.45 318.247 421.011 309.144C423.815 306.936 426.466 304.599 428.941 302.127C429.137 301.931 429.002 299.99 429.002 300.027L428.999 300.034Z" fill="#CAA064"/>
<path d="M104.85 366.56C104.846 366.394 104.843 366.229 104.84 366.063C104.84 366.307 104.846 366.472 104.85 366.56Z" fill="black"/>
<path d="M104.938 365.738C104.938 365.691 104.944 365.644 104.944 365.593C104.938 365.684 104.931 365.775 104.924 365.863C104.924 365.819 104.934 365.779 104.938 365.735V365.738Z" fill="black"/>
<path d="M84.9186 144.458C88.6925 132.548 93.4166 120.942 98.6715 109.614C103.484 99.2457 108.837 89.1111 115.005 79.4803C121.122 69.9273 128.051 60.8681 135.981 52.7421C139.873 48.7552 143.985 44.8495 148.435 41.4848C152.172 38.6578 156.784 36.2264 161.539 35.9221C166.567 35.5975 170.449 38.5225 171.66 43.4157C171.765 43.8384 171.846 44.2645 171.917 44.6906C171.967 44.2746 172.011 43.8553 172.052 43.436C172.153 42.4046 172.218 41.3698 172.272 40.3317C172.343 38.9621 172.4 39.4525 172.431 40.7104C172.41 39.5776 172.387 38.4481 172.366 37.3187C172.268 32.2057 171.964 25.7063 166.625 23.231C162.205 21.1818 156.862 23.0011 152.838 25.1416C147.985 27.7217 143.829 31.6309 139.869 35.3844C122.627 51.7243 109.966 72.264 99.8449 93.5951C89.5548 115.281 80.7356 138.614 77.7328 162.752C78.6052 162.309 79.4743 161.856 80.34 161.396C81.6081 155.684 83.1568 150.034 84.922 144.461L84.9186 144.458Z" fill="#3B6D5C"/>
<path d="M165.363 191.519C165.762 191.225 166.165 190.934 166.56 190.636C174.548 170.841 183.864 151.583 193.299 132.446C204.752 109.215 216.385 85.9087 229.529 63.5767C235.484 53.459 241.919 43.7302 249.277 35.0665C252.997 30.6874 256.984 26.5314 261.282 22.7136C265.194 19.2373 269.354 15.893 274.433 14.3171C278.944 12.9172 284.098 13.3196 286.887 17.6074C288.247 19.7006 288.869 22.2368 289.261 24.6986C289.481 23.1295 289.623 21.5639 289.725 19.9813C289.779 19.1596 289.833 20.2687 289.867 21.973C289.88 18.7741 289.867 15.5582 289.44 12.393C288.744 7.20228 286.938 1.27435 281.061 0.188864C276.036 -0.737691 270.713 1.89995 266.73 4.72019C261.999 8.06796 257.745 12.2814 253.785 16.4915C236.725 34.6202 225.129 57.2227 213.605 79.0576C200.779 103.368 188.334 128.141 176.796 153.422C170.351 167.54 164.427 181.645 159.52 195.736C159.618 195.668 159.716 195.594 159.814 195.526C161.681 194.214 163.527 192.875 165.36 191.519H165.363Z" fill="#3B6D5C"/>
<path d="M76.4446 187.343C76.4581 187.008 76.4817 186.67 76.4987 186.335C76.5764 184.834 76.6711 183.332 76.7996 181.834C76.9315 180.306 77.1209 178.442 77.3982 176.255C77.0397 176.441 76.6779 176.626 76.3194 176.809C76.1909 180.745 76.1808 184.008 76.218 187.945C76.2417 187.995 76.2653 188.726 76.2856 188.777C76.3194 188.726 76.3465 188.658 76.3465 188.564C76.3465 188.564 76.4209 187.901 76.4446 187.343Z" fill="#3B6D5C"/>
<path d="M289.87 20.9586C289.833 19.2205 289.775 18.1045 289.724 19.0176C289.626 20.6745 289.45 22.3248 289.227 23.9682C289.207 24.117 289.187 24.2624 289.163 24.4112C287.219 36.7641 281.815 48.6673 276.113 59.6981C265.177 80.8634 251.113 100.615 236.512 119.39C222.607 137.272 207.457 154.23 190.749 169.542C183.025 176.623 174.957 183.342 166.56 189.619C165.63 190.312 164.673 190.968 163.801 191.739C162.675 192.733 161.413 193.548 160.118 194.309C159.909 194.431 159.719 194.579 159.523 194.715C152.057 199.949 144.343 204.829 136.373 209.272C127.04 214.477 117.179 219.674 106.409 220.929C101.515 221.497 96.4058 221.169 91.8711 219.116C87.1639 216.986 83.5727 213.171 81.2834 208.579C78.9264 203.852 77.3607 197.011 76.8467 193.379C76.7284 192.547 76.3462 187.539 76.3462 187.539C76.3462 188.215 76.1636 188.851 76.2144 189.625C76.2313 191.458 76.2549 191.6 76.2854 193.433C76.3868 199.615 76.7723 205.864 77.9795 211.937C79.0245 217.206 80.8099 222.521 84.2389 226.742C87.5325 230.796 92.1991 233.397 97.3222 234.296C108.079 236.183 119.248 231.75 128.646 226.928C136.954 222.667 145.009 217.926 152.807 212.793C153.216 212.522 153.629 212.258 154.035 211.988C155.641 210.916 157.244 209.837 158.827 208.731C159.067 208.566 159.3 208.393 159.54 208.228C159.932 207.954 160.318 207.67 160.71 207.396C179.305 194.214 196.278 178.821 211.765 162.12C227.811 144.819 242.304 126.119 255.638 106.665C263.03 95.881 270.104 84.8435 276.11 73.2143C282.045 61.7236 287.76 49.2016 289.393 36.2569C289.731 33.5618 289.822 30.8531 289.846 28.1411C289.934 27.3397 289.921 23.4813 289.866 20.9451L289.87 20.9586Z" fill="#CAA064"/>
<path d="M0.203148 115.095C0.216674 115.447 0.2302 115.799 0.247108 116.15C0.253871 114.72 0.260635 113.743 0.236963 112.758C0.213292 113.026 0.196384 113.262 0.196384 113.435C0.196384 113.989 0.196384 114.541 0.199766 115.095H0.203148Z" fill="#CBA35E"/>
<path d="M172.12 42.6582C172.113 41.9244 172.103 41.2481 172.089 40.7104C172.055 39.4525 172.001 38.9621 171.93 40.3317C171.876 41.3664 171.812 42.4012 171.711 43.436C171.67 43.8553 171.623 44.2712 171.575 44.6905C171.257 47.389 170.767 50.0673 170.148 52.7117C167.457 64.1922 162.431 75.1248 156.781 85.4285C146.568 104.051 133.137 120.884 117.348 135.084C106.074 145.225 93.4843 154.23 79.9985 161.396C79.1329 161.856 78.2638 162.306 77.3913 162.752C72.8532 165.065 68.2171 167.168 63.4998 169.035C53.1961 173.11 41.1576 176.113 30.3197 172.298C19.4817 168.484 12.8538 158.112 8.22437 148.177C5.78286 142.936 3.87226 137.447 2.52301 131.827C1.83655 128.963 1.29211 126.065 0.896469 123.147C0.690192 121.635 0.527876 120.113 0.406139 118.592C0.341888 117.804 0.291165 117.013 0.250586 116.221C0.250586 116.201 0.250586 116.177 0.250586 116.157C0.240441 117.736 0.304691 116.083 0.26073 118.91C0.297928 116.38 0.213388 117.631 0.203243 115.102C0.203243 115.038 0.19648 114.977 0.19648 114.913C0.122085 113.144 0.26073 113.158 0.240441 112.765C0.314836 111.916 0.439954 110.76 0.159283 110.334C0.15252 110.253 0.145756 110.172 0.142375 110.094C0.115322 110.402 0.105177 110.709 0.108559 111.017C-0.0165597 119.332 -0.236363 127.756 0.815311 136.027C1.62689 142.412 3.15199 148.708 5.3534 154.758C9.24222 165.457 15.3156 177.553 25.4603 183.569C35.8316 189.717 48.5701 187.803 59.425 184.08C65.1973 182.098 70.8378 179.616 76.3194 176.819C76.6812 176.637 77.0397 176.451 77.3981 176.265C81.642 174.06 85.7912 171.679 89.8254 169.201C108.729 157.585 125.555 142.611 139.335 125.226C146.224 116.536 152.354 107.24 157.592 97.467C163.402 86.6357 168.552 75.091 170.845 62.9545C172.103 56.286 172.211 49.4586 172.12 42.6717V42.6582Z" fill="#CAA064"/>
</svg>
