<svg width="261" height="59" viewBox="0 0 261 59" fill="none" xmlns="http://www.w3.org/2000/svg">
<path d="M131.814 2.831C131.439 1.80311 130.732 1.0146 129.707 0.479531C128.668 -0.0555335 127.615 -0.140017 126.562 0.211999C124.83 0.803386 122.997 2.14105 121.064 4.19682C121.035 4.36579 121.006 4.46435 121.006 4.46435L120.862 4.42211C120.544 4.77413 120.198 5.14022 119.881 5.53448C118.481 7.43537 115.581 11.561 112.521 16.7004C109.188 22.8396 105.638 30.584 101.858 39.9898C101.569 40.7361 101.281 41.4683 100.992 42.2146L98.7555 47.4526C97.933 49.452 97.2692 50.7474 96.9806 52.1414C96.7498 52.3104 96.4612 52.7187 95.8263 53.3946C94.0803 55.2532 92.3198 56.5205 90.343 56.5205C89.0443 56.5205 87.6013 55.9995 87.6013 54.521C87.6013 53.7748 87.9044 52.5075 89.5061 48.6353L107.341 6.16811C107.5 5.87242 107.716 5.57672 107.716 5.19655C107.716 4.90085 107.485 4.53476 106.952 4.53476C106.721 4.53476 106.418 4.53476 106.187 4.60516C106.042 4.60516 105.884 4.67556 105.725 4.67556C104.282 4.90085 102.825 4.97126 100.934 4.97126C98.5679 4.97126 97.9619 4.81637 96.9662 4.81637C96.7353 4.81637 95.9706 4.81637 95.9706 5.26695C95.9706 5.85834 97.2692 5.85834 97.8753 5.85834H99.3183C100.314 5.85834 100.761 6.23851 100.761 6.44972C100.761 6.60461 100.689 6.74542 100.53 7.1256L83.46 47.6497C82.3922 50.2546 81.5553 51.6627 81.5553 53.6762C81.5553 56.8021 84.2248 58.2102 87.8034 58.2102C91.0789 58.2102 93.4454 57.1682 95.2779 55.6897C95.985 55.0984 96.5189 54.5774 96.9085 54.1127C97.2692 56.7599 99.78 57.9849 103.084 57.9849C106.389 57.9849 108.726 56.9429 110.545 55.4644C112.449 53.9015 113.055 52.7046 113.055 52.409C113.055 52.0429 112.594 51.8176 112.449 51.8176C112.146 51.8176 111.915 52.2681 111.078 53.1552C109.318 55.0139 107.572 56.2811 105.595 56.2811C104.296 56.2811 102.854 55.7601 102.854 54.2676C102.854 53.5213 103.157 52.2541 104.758 48.396L106.143 45.1011C107.788 42.9186 110.819 39.2999 115.234 34.2168C121.28 27.275 125.537 21.7835 128.019 17.7424C131.872 11.4765 133.141 6.49197 131.814 2.80284V2.831ZM121.381 24.304C119.549 26.8385 116.013 31.4006 107.24 42.0315C112.218 29.5983 114.181 23.952 115.523 20.7416C120.097 9.60379 122.564 3.15485 126.735 1.71863C128.567 1.085 129.779 1.63414 130.4 3.32382C131.756 7.08335 128.755 14.0674 121.396 24.2899L121.381 24.304Z" fill="url(#paint0_linear_527_6520)"/>
<path d="M6.34907 45.8763V9.13993H0V7.6333H19.2348C23.4915 7.6333 27.1278 8.22469 30.1581 9.39338C33.1883 10.5762 35.7135 12.8713 37.7336 16.307C39.7538 19.7427 40.7783 23.4599 40.7783 27.4729C40.7783 31.7253 39.6672 35.513 37.4306 38.8642C35.2085 42.2013 32.6255 44.4683 29.7252 45.637C26.8104 46.8197 23.2751 47.397 19.1049 47.397H0V45.8904H6.34907V45.8763ZM13.5783 9.13993V45.8904H18.874C21.6445 45.8904 23.91 45.637 25.656 45.1441C27.402 44.6513 28.8594 43.5671 29.9993 41.9197C31.1393 40.2582 31.9185 38.1601 32.3225 35.5975C32.7265 33.0489 32.9286 29.7118 32.9286 25.6002C32.9286 20.6579 32.2792 16.9688 30.995 14.5328C29.7107 12.0969 28.1235 10.5902 26.262 10.0129C24.4006 9.43562 21.962 9.13993 18.975 9.13993H13.5639H13.5783Z" fill="#292728"/>
<path d="M53.8241 23.6291V45.8766H57.8067V47.3832H43.68V45.8766H47.9368V25.5863H43.68V24.0797H47.9945C50.0724 24.0797 52.006 23.9248 53.8385 23.6291H53.8241ZM47.7204 12.2097C47.7204 11.3367 48.0522 10.5905 48.716 9.95683C49.3653 9.3232 50.1445 9.01343 51.0392 9.01343C51.9338 9.01343 52.713 9.3232 53.3624 9.94275C54.0261 10.5623 54.358 11.3227 54.358 12.2097C54.358 13.0968 54.0406 13.9135 53.3912 14.519C52.7419 15.1385 51.9627 15.4342 51.0536 15.4342C50.1445 15.4342 49.3653 15.1244 48.716 14.5049C48.0667 13.8853 47.7492 13.1109 47.7492 12.2097H47.7204Z" fill="#292728"/>
<path d="M57.8762 35.6664C57.8762 32.2448 59.0738 29.3442 61.498 26.9364C63.9078 24.5286 66.8947 23.3318 70.4589 23.3318C74.023 23.3318 76.8945 24.4864 79.3187 26.7815C81.7429 29.0767 82.955 31.9632 82.955 35.4271C82.955 38.8909 81.6996 41.9605 79.1888 44.4246C76.6781 46.8887 73.7055 48.1137 70.2857 48.1137C66.8659 48.1137 64.0232 46.9169 61.5557 44.5091C59.1027 42.1013 57.8762 39.1584 57.8762 35.6524V35.6664ZM76.1153 35.6664C76.1153 32.0336 75.9854 29.6258 75.7401 28.4571C75.4804 27.2884 74.9176 26.3732 74.0374 25.6833C73.1572 25.0074 71.9451 24.6554 70.4011 24.6554C68.9437 24.6554 67.7316 25.0074 66.7937 25.7114C65.8558 26.4154 65.2642 27.3448 65.0477 28.5135C64.8168 29.6822 64.7158 32.0759 64.7158 35.7228C64.7158 39.3696 64.8457 41.8056 65.1199 42.9884C65.394 44.1711 65.9856 45.1005 66.9091 45.7763C67.8326 46.4522 68.987 46.7761 70.3867 46.7761C71.7864 46.7761 72.984 46.4381 73.922 45.7482C74.8599 45.0723 75.466 44.1148 75.7113 42.9039C75.9566 41.693 76.0864 39.2711 76.0864 35.6524L76.1153 35.6664Z" fill="#292728"/>
<path d="M126.419 23.6291V45.8766H130.402V47.3832H116.275V45.8766H120.532V25.5863H116.275V24.0797H120.59C122.653 24.0797 124.601 23.9248 126.419 23.6291ZM120.316 12.2097C120.316 11.3367 120.647 10.5905 121.297 9.95683C121.946 9.3232 122.725 9.01343 123.62 9.01343C124.515 9.01343 125.279 9.3232 125.943 9.94275C126.607 10.5623 126.924 11.3227 126.924 12.2097C126.924 13.0968 126.607 13.9135 125.958 14.519C125.308 15.1385 124.529 15.4342 123.62 15.4342C122.711 15.4342 121.917 15.1244 121.282 14.5049C120.633 13.8853 120.316 13.1109 120.316 12.2097Z" fill="#292728"/>
<path d="M164.787 32.6402C164.873 32.8232 165.018 32.95 165.22 33.0204C165.422 33.0908 165.682 33.133 166.028 33.133V33.4991C164.931 33.4569 164.21 33.4287 163.878 33.4287C163.546 33.4287 162.868 33.4569 161.872 33.4991V33.133C162.175 33.133 162.406 33.0908 162.565 33.0204C162.738 32.95 162.853 32.8232 162.925 32.6402C162.998 32.4571 163.041 32.2037 163.041 31.8798V26.8108C163.041 26.3602 163.012 26.0082 162.969 25.7266C162.911 25.445 162.796 25.2197 162.594 25.0507C162.392 24.8818 162.089 24.7832 161.685 24.7832C161.223 24.7832 160.819 24.924 160.444 25.2056C160.083 25.4872 159.78 25.8674 159.578 26.3461C159.361 26.8249 159.26 27.374 159.26 27.9513V31.8658C159.26 32.1896 159.304 32.4431 159.39 32.6261C159.477 32.8092 159.621 32.9359 159.809 33.0063C159.996 33.0767 160.27 33.1189 160.602 33.1189V33.485C159.506 33.4428 158.784 33.4146 158.452 33.4146C158.12 33.4146 157.442 33.4428 156.432 33.485V33.1189C156.735 33.1189 156.966 33.0767 157.139 33.0063C157.312 32.9359 157.428 32.8092 157.5 32.6261C157.572 32.4431 157.615 32.1896 157.615 31.8658V26.7967C157.615 26.3461 157.586 25.9941 157.543 25.7125C157.485 25.4309 157.37 25.2056 157.168 25.0366C156.966 24.8677 156.663 24.7691 156.259 24.7691C155.797 24.7691 155.379 24.9099 155.018 25.1915C154.643 25.4731 154.354 25.8533 154.152 26.3461C153.936 26.839 153.835 27.374 153.835 27.9513V31.8517C153.835 32.1755 153.878 32.429 153.95 32.612C154.022 32.7951 154.152 32.9218 154.325 32.9922C154.499 33.0626 154.729 33.1049 155.032 33.1049V33.471C154.022 33.4287 153.359 33.4005 153.012 33.4005C152.666 33.4005 151.959 33.4287 150.862 33.471V33.1049C151.194 33.1049 151.468 33.0626 151.67 32.9922C151.872 32.9218 152.017 32.7951 152.103 32.612C152.19 32.429 152.233 32.1755 152.233 31.8517V26.3743C152.233 25.8392 152.132 25.445 151.93 25.1915C151.728 24.9522 151.367 24.8254 150.862 24.8254V24.4593C151.237 24.4875 151.613 24.5157 151.973 24.5157C152.738 24.5157 153.359 24.4312 153.835 24.2763V26.3321C154.123 25.614 154.542 25.0789 155.061 24.741C155.595 24.3889 156.158 24.22 156.778 24.22C157.586 24.22 158.207 24.4453 158.654 24.8818C158.957 25.2056 159.13 25.6703 159.203 26.2898C159.506 25.5576 159.91 25.0226 160.444 24.6987C160.977 24.3749 161.555 24.22 162.204 24.22C163.012 24.22 163.647 24.4453 164.065 24.8818C164.282 25.1211 164.441 25.4168 164.527 25.7688C164.614 26.1349 164.657 26.5996 164.657 27.1769V31.8517C164.657 32.1755 164.7 32.429 164.787 32.612V32.6402Z" fill="#C99F65"/>
<path d="M171.598 24.9513C171.309 24.6979 170.905 24.5852 170.371 24.5852C169.52 24.5852 168.928 24.7965 168.596 25.2048C168.842 25.2611 169.029 25.3878 169.203 25.5709C169.361 25.768 169.448 25.9933 169.448 26.2749C169.448 26.5706 169.347 26.81 169.159 26.979C168.972 27.1479 168.712 27.2324 168.394 27.2324C168.091 27.2324 167.846 27.1338 167.673 26.9367C167.5 26.7396 167.413 26.4721 167.413 26.1482C167.413 25.6976 167.687 25.2752 168.25 24.895C168.539 24.712 168.899 24.543 169.332 24.4304C169.765 24.3036 170.241 24.2473 170.761 24.2473C171.252 24.2473 171.684 24.3036 172.06 24.4163C172.435 24.5289 172.723 24.6979 172.94 24.895C173.214 25.1626 173.402 25.4864 173.503 25.8525C173.604 26.2186 173.661 26.7114 173.661 27.3591V32.231C173.661 32.5267 173.705 32.7379 173.791 32.8647C173.878 32.9914 174.022 33.0618 174.224 33.0618C174.368 33.0618 174.498 33.0336 174.628 32.9632C174.744 32.9069 174.888 32.8083 175.032 32.6816L175.234 32.9773C175.018 33.1322 174.845 33.2589 174.715 33.3434C174.57 33.4279 174.412 33.4983 174.238 33.5546C174.051 33.6109 173.849 33.625 173.604 33.625C173.026 33.625 172.622 33.4842 172.391 33.2026C172.161 32.921 172.06 32.5408 172.06 32.0621C171.713 32.6253 171.28 33.0336 170.79 33.2589C170.299 33.4983 169.794 33.6109 169.289 33.6109C168.871 33.6109 168.495 33.5405 168.149 33.3997C167.803 33.2589 167.529 33.0477 167.327 32.752C167.125 32.4563 167.009 32.0902 167.009 31.6537C167.009 31.2172 167.125 30.8371 167.341 30.5132C167.558 30.2034 167.875 29.9218 168.279 29.6824C168.683 29.4431 169.217 29.1896 169.895 28.908C170.011 28.8658 170.299 28.7531 170.761 28.5701C171.223 28.387 171.54 28.204 171.742 28.0209C171.944 27.8379 172.045 27.6407 172.045 27.4155V26.3313C172.045 25.6554 171.901 25.1907 171.612 24.9373L171.598 24.9513ZM171.598 28.5138C171.396 28.6264 170.963 28.8376 170.314 29.1474C169.967 29.3023 169.679 29.4712 169.433 29.6402C169.188 29.8092 168.986 30.0345 168.827 30.3161C168.654 30.5977 168.568 30.9497 168.568 31.3721C168.568 31.879 168.697 32.2592 168.957 32.5267C169.217 32.7802 169.563 32.921 169.996 32.921C170.79 32.921 171.468 32.4845 172.016 31.5974V28.1617C171.93 28.2885 171.785 28.4152 171.583 28.5278L171.598 28.5138Z" fill="#C99F65"/>
<path d="M181.31 24.4877V24.8397H178.655V31.6266C178.655 32.1616 178.756 32.5418 178.943 32.7671C179.131 32.9924 179.419 33.1191 179.795 33.1191C180.17 33.1191 180.487 32.9783 180.747 32.6826C181.007 32.3869 181.238 31.9082 181.411 31.2464L181.757 31.3309C181.468 32.9502 180.689 33.7528 179.419 33.7528C179.015 33.7528 178.684 33.7105 178.424 33.6119C178.164 33.5134 177.933 33.3726 177.717 33.1754C177.457 32.922 177.284 32.5981 177.168 32.232C177.067 31.8519 177.01 31.359 177.01 30.7254V24.8538H175.278V24.5018H177.01V21.8265C177.688 21.8124 178.222 21.7279 178.626 21.573V24.5018H181.281L181.31 24.4877Z" fill="#C99F65"/>
<path d="M189.072 32.4853C188.798 32.8514 188.423 33.1612 187.975 33.3865C187.528 33.6258 186.994 33.7385 186.388 33.7385C185.638 33.7385 184.96 33.5554 184.368 33.1753C183.762 32.7951 183.286 32.26 182.939 31.556C182.593 30.852 182.42 30.0353 182.42 29.0919C182.42 28.1485 182.593 27.3036 182.954 26.5574C183.315 25.8252 183.805 25.2479 184.44 24.8395C185.075 24.4312 185.796 24.22 186.605 24.22C187.413 24.22 188.105 24.403 188.697 24.7832C189.26 25.1493 189.534 25.5999 189.534 26.1349C189.534 26.4447 189.447 26.6841 189.26 26.853C189.086 27.022 188.856 27.1206 188.581 27.1206C188.307 27.1206 188.062 27.0361 187.874 26.8812C187.687 26.7263 187.586 26.5151 187.586 26.2335C187.586 25.98 187.658 25.7688 187.802 25.5999C187.946 25.4309 188.12 25.3183 188.336 25.2619C188.221 25.0507 188.004 24.8818 187.701 24.741C187.398 24.6001 187.066 24.5297 186.734 24.5297C186.301 24.5297 185.883 24.6705 185.493 24.9381C185.104 25.2056 184.786 25.6703 184.541 26.3039C184.296 26.9375 184.166 27.7824 184.166 28.8243C184.166 30.2746 184.411 31.3307 184.887 31.9925C185.364 32.6543 185.984 32.9781 186.749 32.9781C187.254 32.9781 187.744 32.8373 188.206 32.5416C188.668 32.2459 189.058 31.7954 189.346 31.1758L189.692 31.3025C189.563 31.725 189.346 32.1051 189.072 32.4712V32.4853Z" fill="#C99F65"/>
<path d="M194.916 24.7257C195.45 24.4018 196.056 24.2329 196.72 24.2329C197.557 24.2329 198.192 24.4581 198.624 24.8946C198.855 25.134 199.014 25.4297 199.115 25.7817C199.216 26.1337 199.259 26.5984 199.259 27.2039V31.8786C199.259 32.2025 199.303 32.4559 199.389 32.639C199.476 32.822 199.62 32.9488 199.822 33.0192C200.01 33.0896 200.284 33.1318 200.616 33.1318V33.4979C199.49 33.4557 198.769 33.4275 198.466 33.4275C198.134 33.4275 197.456 33.4557 196.446 33.4979V33.1318C196.749 33.1318 196.979 33.0896 197.153 33.0192C197.326 32.9488 197.441 32.822 197.528 32.639C197.6 32.4559 197.643 32.2025 197.643 31.8786V26.8096C197.643 26.3872 197.614 26.0352 197.542 25.7536C197.47 25.4719 197.326 25.2326 197.124 25.0636C196.907 24.8806 196.604 24.7961 196.2 24.7961C195.71 24.7961 195.277 24.9369 194.902 25.2044C194.526 25.4719 194.223 25.8521 194.007 26.3309C193.791 26.8096 193.689 27.3588 193.689 27.9642V31.8786C193.689 32.2025 193.733 32.4559 193.805 32.639C193.877 32.822 194.007 32.9488 194.18 33.0192C194.353 33.0896 194.584 33.1318 194.873 33.1318V33.4979C193.863 33.4557 193.199 33.4275 192.867 33.4275C192.535 33.4275 191.814 33.4557 190.703 33.4979V33.1318C191.049 33.1318 191.309 33.0896 191.511 33.0192C191.713 32.9488 191.843 32.822 191.944 32.639C192.03 32.4559 192.073 32.2025 192.073 31.8786V21.8814C192.073 21.3463 191.972 20.9521 191.77 20.6986C191.568 20.4592 191.208 20.3325 190.703 20.3325V19.9664C191.078 19.9946 191.453 20.0227 191.814 20.0227C192.578 20.0227 193.213 19.9383 193.675 19.7693V26.3168C193.978 25.5705 194.397 25.0354 194.93 24.7116L194.916 24.7257Z" fill="#C99F65"/>
<path d="M215.319 32.6402C215.406 32.8232 215.55 32.95 215.752 33.0204C215.954 33.0908 216.214 33.133 216.56 33.133V33.4991C215.464 33.4569 214.742 33.4287 214.41 33.4287C214.078 33.4287 213.4 33.4569 212.404 33.4991V33.133C212.707 33.133 212.938 33.0908 213.097 33.0204C213.256 32.95 213.386 32.8232 213.458 32.6402C213.53 32.4571 213.573 32.2037 213.573 31.8798V26.8108C213.573 26.3602 213.544 26.0082 213.501 25.7266C213.443 25.445 213.328 25.2197 213.126 25.0507C212.924 24.8818 212.621 24.7832 212.217 24.7832C211.755 24.7832 211.351 24.924 210.976 25.2056C210.615 25.4872 210.312 25.8674 210.11 26.3461C209.894 26.8249 209.793 27.374 209.793 27.9513V31.8658C209.793 32.1896 209.836 32.4431 209.923 32.6261C210.009 32.8092 210.153 32.9359 210.341 33.0063C210.529 33.0767 210.803 33.1189 211.135 33.1189V33.485C210.038 33.4428 209.316 33.4146 208.985 33.4146C208.653 33.4146 207.975 33.4428 206.964 33.485V33.1189C207.267 33.1189 207.498 33.0767 207.671 33.0063C207.845 32.9359 207.96 32.8092 208.032 32.6261C208.104 32.4431 208.148 32.1896 208.148 31.8658V26.7967C208.148 26.3461 208.119 25.9941 208.076 25.7125C208.018 25.4309 207.902 25.2056 207.7 25.0366C207.498 24.8677 207.195 24.7691 206.806 24.7691C206.344 24.7691 205.926 24.9099 205.565 25.1915C205.19 25.4731 204.901 25.8533 204.699 26.3461C204.483 26.839 204.382 27.374 204.382 27.9513V31.8517C204.382 32.1755 204.425 32.429 204.497 32.612C204.569 32.7951 204.699 32.9218 204.872 32.9922C205.045 33.0626 205.276 33.1049 205.579 33.1049V33.471C204.569 33.4287 203.905 33.4005 203.559 33.4005C203.213 33.4005 202.506 33.4287 201.395 33.471V33.1049C201.741 33.1049 202.001 33.0626 202.203 32.9922C202.39 32.9218 202.535 32.7951 202.636 32.612C202.722 32.429 202.765 32.1755 202.765 31.8517V26.3743C202.765 25.8392 202.664 25.445 202.462 25.1915C202.26 24.9522 201.914 24.8254 201.395 24.8254V24.4593C201.77 24.4875 202.145 24.5157 202.506 24.5157C203.27 24.5157 203.891 24.4312 204.367 24.2763V26.3321C204.656 25.614 205.074 25.0789 205.594 24.741C206.113 24.3889 206.69 24.22 207.311 24.22C208.119 24.22 208.754 24.4453 209.172 24.8818C209.475 25.2056 209.648 25.6703 209.721 26.2898C210.024 25.5576 210.428 25.0226 210.961 24.6987C211.495 24.3749 212.073 24.22 212.722 24.22C213.53 24.22 214.15 24.4453 214.583 24.8818C214.8 25.1211 214.944 25.4168 215.045 25.7688C215.132 26.1349 215.175 26.5996 215.175 27.1769V31.8517C215.175 32.1755 215.218 32.429 215.305 32.612L215.319 32.6402Z" fill="#C99F65"/>
<path d="M222.131 24.9513C221.842 24.6979 221.424 24.5852 220.904 24.5852C220.053 24.5852 219.461 24.7965 219.129 25.2048C219.375 25.2611 219.562 25.3878 219.735 25.5709C219.894 25.768 219.981 25.9933 219.981 26.2749C219.981 26.5706 219.88 26.81 219.692 26.979C219.504 27.1479 219.245 27.2324 218.927 27.2324C218.624 27.2324 218.379 27.1338 218.206 26.9367C218.033 26.7396 217.946 26.4721 217.946 26.1482C217.946 25.6976 218.22 25.2752 218.783 24.895C219.071 24.712 219.432 24.543 219.865 24.4304C220.298 24.3036 220.774 24.2473 221.294 24.2473C221.784 24.2473 222.217 24.3036 222.592 24.4163C222.968 24.5289 223.256 24.6979 223.473 24.895C223.747 25.1626 223.934 25.4864 224.035 25.8525C224.136 26.2186 224.194 26.7114 224.194 27.3591V32.231C224.194 32.5267 224.237 32.7379 224.324 32.8647C224.41 32.9914 224.555 33.0618 224.742 33.0618C224.887 33.0618 225.017 33.0336 225.146 32.9632C225.262 32.9069 225.406 32.8083 225.55 32.6816L225.752 32.9773C225.536 33.1322 225.363 33.2589 225.219 33.3434C225.074 33.4279 224.916 33.4983 224.742 33.5546C224.569 33.6109 224.353 33.625 224.107 33.625C223.53 33.625 223.126 33.4842 222.895 33.2026C222.664 32.921 222.563 32.5408 222.563 32.0621C222.217 32.6253 221.784 33.0336 221.294 33.2589C220.803 33.4983 220.298 33.6109 219.793 33.6109C219.375 33.6109 218.999 33.5405 218.653 33.3997C218.307 33.2589 218.033 33.0477 217.831 32.752C217.629 32.4563 217.513 32.0902 217.513 31.6537C217.513 31.2172 217.629 30.8371 217.845 30.5132C218.061 30.2034 218.379 29.9218 218.783 29.6824C219.187 29.4431 219.721 29.1896 220.399 28.908C220.514 28.8658 220.803 28.7531 221.265 28.5701C221.727 28.387 222.044 28.204 222.246 28.0209C222.448 27.8379 222.549 27.6407 222.549 27.4155V26.3313C222.549 25.6554 222.405 25.1907 222.116 24.9373L222.131 24.9513ZM222.131 28.5138C221.929 28.6264 221.496 28.8376 220.846 29.1474C220.5 29.3023 220.211 29.4712 219.966 29.6402C219.721 29.8092 219.519 30.0345 219.36 30.3161C219.187 30.5977 219.1 30.9497 219.1 31.3721C219.1 31.879 219.23 32.2592 219.49 32.5267C219.75 32.7802 220.096 32.921 220.529 32.921C221.323 32.921 222.001 32.4845 222.549 31.5974V28.1617C222.462 28.2885 222.318 28.4152 222.116 28.5278L222.131 28.5138Z" fill="#C99F65"/>
<path d="M234.872 32.8647C235.06 33.0055 235.276 33.09 235.522 33.1322V33.4983C234.8 33.4561 234.309 33.4279 234.064 33.4279C233.747 33.4279 233.083 33.4561 232.073 33.4983V33.1322C232.246 33.1322 232.376 33.1041 232.477 33.0337C232.578 32.9773 232.621 32.8929 232.621 32.7943C232.621 32.7098 232.578 32.6253 232.52 32.5268L230.457 29.5839C230.24 29.2882 230.038 29.0911 229.865 28.9925C229.678 28.894 229.432 28.8376 229.115 28.8236V31.8791C229.115 32.2029 229.158 32.4564 229.23 32.6394C229.302 32.8225 229.432 32.9492 229.605 33.0196C229.779 33.09 230.009 33.1322 230.298 33.1322V33.4983C229.288 33.4561 228.624 33.4279 228.307 33.4279C227.96 33.4279 227.225 33.4561 226.128 33.4983V33.1322C226.474 33.1322 226.734 33.09 226.936 33.0196C227.138 32.9492 227.268 32.8225 227.369 32.6394C227.455 32.4564 227.499 32.2029 227.499 31.8791V21.8677C227.499 21.3326 227.398 20.9384 227.196 20.6849C226.994 20.4456 226.633 20.3188 226.128 20.3188V19.9527C226.503 19.9809 226.878 20.0091 227.239 20.0091C228.004 20.0091 228.639 19.9246 229.1 19.7556V28.4575C229.447 28.4152 229.75 28.3307 229.981 28.2181C230.211 28.1054 230.442 27.9365 230.644 27.7253L231.972 26.3876C232.347 25.9933 232.535 25.6836 232.535 25.416C232.535 25.2048 232.419 25.064 232.174 24.9655C231.929 24.8669 231.611 24.8246 231.207 24.8246V24.4726C232.044 24.5149 232.708 24.543 233.227 24.543C233.79 24.543 234.309 24.5149 234.786 24.4726V24.8246C234.194 24.881 233.66 25.1485 233.17 25.6413L230.991 27.8801L234.237 32.2029C234.454 32.4986 234.656 32.7239 234.843 32.8506L234.872 32.8647Z" fill="#C99F65"/>
<path d="M239.273 32.6391C239.359 32.8222 239.503 32.9489 239.705 33.0193C239.893 33.0897 240.167 33.1319 240.513 33.1319V33.498C239.417 33.4558 238.695 33.4276 238.335 33.4276C237.974 33.4276 237.252 33.4558 236.156 33.498V33.1319C236.502 33.1319 236.762 33.0897 236.964 33.0193C237.166 32.9489 237.296 32.8222 237.397 32.6391C237.483 32.4561 237.527 32.2026 237.527 31.8788V26.4014C237.527 25.8663 237.426 25.4721 237.224 25.2186C237.021 24.9792 236.661 24.8525 236.156 24.8525V24.4864C236.531 24.5146 236.906 24.5427 237.267 24.5427C238.032 24.5427 238.652 24.4583 239.128 24.3034V31.8928C239.128 32.2167 239.172 32.4701 239.258 32.6532L239.273 32.6391ZM238.782 20.2481C238.955 20.3467 239.099 20.4875 239.2 20.6565C239.301 20.8255 239.359 21.0085 239.359 21.2197C239.359 21.4309 239.301 21.5999 239.2 21.7829C239.099 21.9519 238.955 22.0927 238.782 22.1913C238.609 22.2898 238.421 22.3462 238.205 22.3462C237.988 22.3462 237.815 22.2898 237.628 22.1913C237.454 22.0927 237.31 21.9519 237.209 21.7829C237.108 21.614 237.05 21.4168 237.05 21.2197C237.05 21.0226 237.108 20.8395 237.209 20.6565C237.31 20.4875 237.454 20.3467 237.628 20.2481C237.801 20.1496 238.003 20.0933 238.205 20.0933C238.407 20.0933 238.594 20.1496 238.782 20.2481Z" fill="#C99F65"/>
<path d="M245.651 24.7405C246.185 24.4026 246.791 24.2336 247.47 24.2336C248.306 24.2336 248.941 24.4589 249.374 24.8954C249.591 25.1348 249.749 25.4305 249.85 25.7825C249.951 26.1345 249.995 26.5992 249.995 27.2047V31.8794C249.995 32.2033 250.038 32.4567 250.125 32.6398C250.211 32.8228 250.355 32.9496 250.557 33.02C250.76 33.0904 251.019 33.1326 251.366 33.1326V33.4987C250.269 33.4565 249.547 33.4283 249.216 33.4283C248.884 33.4283 248.205 33.4565 247.21 33.4987V33.1326C247.513 33.1326 247.744 33.0904 247.902 33.02C248.076 32.9496 248.191 32.8228 248.263 32.6398C248.335 32.4567 248.379 32.2033 248.379 31.8794V26.8104C248.379 26.388 248.35 26.036 248.278 25.7544C248.205 25.4727 248.076 25.2334 247.859 25.0644C247.643 24.8814 247.34 24.7969 246.921 24.7969C246.431 24.7969 245.998 24.9377 245.608 25.2193C245.219 25.5009 244.93 25.8811 244.713 26.3739C244.497 26.8667 244.396 27.4018 244.396 27.9932V31.8935C244.396 32.2174 244.439 32.4708 244.511 32.6539C244.584 32.8369 244.713 32.9636 244.887 33.034C245.06 33.1044 245.291 33.1467 245.594 33.1467V33.5128C244.584 33.4705 243.92 33.4424 243.574 33.4424C243.227 33.4424 242.52 33.4705 241.409 33.5128V33.1467C241.755 33.1467 242.015 33.1044 242.217 33.034C242.405 32.9636 242.549 32.8369 242.65 32.6539C242.737 32.4708 242.78 32.2174 242.78 31.8935V26.4161C242.78 25.8811 242.679 25.4868 242.477 25.2334C242.275 24.994 241.929 24.8673 241.409 24.8673V24.5012C241.784 24.5293 242.159 24.5575 242.52 24.5575C243.285 24.5575 243.905 24.473 244.382 24.3181V26.3739C244.685 25.6276 245.103 25.0926 245.637 24.7546L245.651 24.7405Z" fill="#C99F65"/>
<path d="M260.023 31.9639C260.412 32.2174 260.6 32.6398 260.6 33.203C260.6 33.7663 260.412 34.3154 260.037 34.8786C259.662 35.4278 259.099 35.8924 258.349 36.2585C257.599 36.6246 256.661 36.8077 255.579 36.8077C254.958 36.8077 254.366 36.7514 253.818 36.6246C253.27 36.4979 252.822 36.3149 252.476 36.0755C252.144 35.8361 251.971 35.5404 251.971 35.2025C251.971 34.8082 252.188 34.414 252.62 34.0479C253.053 33.6818 253.587 33.3438 254.222 33.0622H254.164C253.703 33.0622 253.299 32.9637 252.923 32.7806C252.548 32.5976 252.375 32.2455 252.375 31.7246C252.375 31.3303 252.548 30.9501 252.88 30.584C253.226 30.2179 253.804 29.8659 254.612 29.4998C254.092 29.3027 253.674 28.9929 253.385 28.5705C253.097 28.1481 252.952 27.6271 252.952 26.9935C252.952 26.0641 253.255 25.3742 253.861 24.9236C254.467 24.459 255.276 24.2337 256.271 24.2337C256.733 24.2337 257.166 24.29 257.541 24.3885C257.656 23.7408 257.873 23.2199 258.176 22.8256C258.493 22.4313 258.912 22.2483 259.402 22.2483C259.705 22.2483 259.936 22.3328 260.095 22.5017C260.268 22.6707 260.34 22.896 260.34 23.1635C260.34 23.4029 260.254 23.6 260.095 23.769C259.936 23.9239 259.734 24.0084 259.489 24.0084C259.186 24.0084 258.97 23.9239 258.825 23.7408C258.695 23.5578 258.594 23.2762 258.522 22.9101C258.349 23.065 258.19 23.3466 258.032 23.769C257.945 24.0225 257.887 24.2618 257.844 24.5012C258.392 24.6983 258.811 25.0081 259.114 25.4164C259.417 25.8389 259.576 26.3739 259.576 27.0075C259.576 27.6412 259.431 28.1481 259.143 28.5564C258.854 28.9648 258.464 29.2745 257.974 29.4717C257.483 29.6688 256.906 29.7674 256.257 29.7674C255.766 29.7674 255.333 29.711 254.929 29.5984C254.439 29.8518 254.078 30.0771 253.818 30.3024C253.558 30.5136 253.429 30.7389 253.429 30.9924C253.429 31.1895 253.501 31.3303 253.631 31.4289C253.76 31.5274 253.977 31.5697 254.28 31.5697H258.493C259.114 31.5697 259.619 31.6964 260.008 31.9499L260.023 31.9639ZM253.76 33.8226C253.544 34.1464 253.443 34.4844 253.443 34.8223C253.443 35.2025 253.573 35.5123 253.833 35.7657C254.092 36.0192 254.424 36.2022 254.828 36.3289C255.232 36.4416 255.651 36.512 256.069 36.512C256.603 36.512 257.122 36.4134 257.628 36.2304C258.133 36.0473 258.551 35.7657 258.883 35.3855C259.215 35.0054 259.374 34.5548 259.374 34.0338C259.374 33.8085 259.33 33.6255 259.258 33.4846C259.186 33.3438 259.042 33.2453 258.84 33.1749C258.638 33.1045 258.363 33.0622 258.003 33.0622H254.669C254.28 33.2594 253.977 33.5128 253.775 33.8367L253.76 33.8226ZM255.045 25.1067C254.77 25.4868 254.626 26.1064 254.626 27.0075C254.626 27.9087 254.77 28.5283 255.045 28.9084C255.319 29.2886 255.723 29.4717 256.257 29.4717C256.791 29.4717 257.209 29.2886 257.483 28.9225C257.757 28.5564 257.902 27.9228 257.902 27.0216C257.902 26.1205 257.757 25.4868 257.483 25.1207C257.209 24.7546 256.805 24.5716 256.257 24.5716C255.708 24.5716 255.319 24.7546 255.045 25.1348V25.1067Z" fill="#C99F65"/>
<path d="M155.654 38.8776C155.365 38.6242 154.961 38.5115 154.427 38.5115C153.576 38.5115 152.984 38.7227 152.652 39.1311C152.898 39.1874 153.085 39.3141 153.258 39.4972C153.417 39.6943 153.504 39.9196 153.504 40.2012C153.504 40.4969 153.403 40.7363 153.215 40.9052C153.027 41.0742 152.768 41.1587 152.45 41.1587C152.147 41.1587 151.902 41.0601 151.729 40.863C151.556 40.6659 151.469 40.3983 151.469 40.0745C151.469 39.6239 151.743 39.2015 152.306 38.8213C152.595 38.6382 152.955 38.4693 153.388 38.3566C153.821 38.2299 154.297 38.1736 154.817 38.1736C155.307 38.1736 155.74 38.2299 156.115 38.3426C156.491 38.4552 156.779 38.6242 156.996 38.8213C157.27 39.0888 157.457 39.4127 157.558 39.7788C157.659 40.1449 157.717 40.6377 157.717 41.2854V46.1573C157.717 46.453 157.76 46.6642 157.847 46.7909C157.934 46.9177 158.078 46.9881 158.265 46.9881C158.41 46.9881 158.54 46.9599 158.67 46.8895C158.785 46.8191 158.929 46.7346 159.074 46.6079L159.276 46.9036C159.059 47.0585 158.886 47.1711 158.756 47.2697C158.612 47.3542 158.453 47.4246 158.28 47.4668C158.092 47.5231 157.89 47.5372 157.645 47.5372C157.068 47.5372 156.664 47.3964 156.433 47.1148C156.202 46.8332 156.101 46.453 156.101 45.9883C155.755 46.5516 155.322 46.9599 154.831 47.1852C154.341 47.4246 153.836 47.5372 153.331 47.5372C152.912 47.5372 152.537 47.4668 152.191 47.326C151.844 47.1852 151.57 46.974 151.368 46.6783C151.166 46.3826 151.051 46.0165 151.051 45.58C151.051 45.1435 151.166 44.7492 151.383 44.4395C151.599 44.1297 151.916 43.8481 152.32 43.6087C152.724 43.3693 153.258 43.1159 153.937 42.8343C154.052 42.792 154.341 42.6794 154.802 42.4963C155.264 42.3133 155.582 42.1302 155.784 41.9472C155.986 41.7641 156.087 41.567 156.087 41.3417V40.2575C156.087 39.5816 155.942 39.117 155.654 38.8635V38.8776ZM155.654 42.4541C155.452 42.5667 155.019 42.778 154.369 43.0877C154.023 43.2426 153.735 43.4116 153.489 43.5806C153.244 43.7495 153.042 43.9748 152.883 44.2564C152.71 44.538 152.623 44.8901 152.623 45.3125C152.623 45.8194 152.753 46.1996 153.013 46.4671C153.273 46.7205 153.619 46.8613 154.052 46.8613C154.846 46.8613 155.524 46.4248 156.072 45.5378V42.1021C155.986 42.2288 155.841 42.3555 155.639 42.4682L155.654 42.4541Z" fill="#C99F65"/>
<path d="M167.686 45.8889C168.076 46.1424 168.263 46.5648 168.263 47.128C168.263 47.6912 168.076 48.2404 167.701 48.7895C167.325 49.3387 166.763 49.8033 166.012 50.1694C165.262 50.5355 164.324 50.7186 163.242 50.7186C162.621 50.7186 162.03 50.6622 161.481 50.5355C160.933 50.4088 160.486 50.2257 160.139 49.9864C159.793 49.747 159.634 49.4513 159.634 49.1134C159.634 48.7191 159.851 48.3249 160.284 47.9588C160.717 47.5786 161.251 47.2547 161.885 46.9731H161.828C161.366 46.9731 160.962 46.8745 160.587 46.6915C160.212 46.5085 160.024 46.1564 160.024 45.6355C160.024 45.2412 160.197 44.861 160.529 44.4949C160.875 44.1288 161.453 43.7768 162.261 43.4107C161.741 43.2136 161.323 42.9038 161.034 42.4814C160.745 42.059 160.601 41.538 160.601 40.9044C160.601 39.975 160.904 39.2851 161.51 38.8345C162.116 38.3698 162.924 38.1446 163.92 38.1446C164.382 38.1446 164.815 38.2009 165.19 38.2994C165.305 37.6517 165.522 37.1307 165.825 36.7365C166.142 36.3422 166.561 36.1592 167.051 36.1592C167.354 36.1592 167.585 36.2437 167.744 36.4126C167.917 36.5816 167.989 36.8069 167.989 37.0744C167.989 37.3138 167.903 37.5109 167.744 37.6658C167.585 37.8207 167.369 37.9052 167.123 37.9052C166.82 37.9052 166.604 37.8207 166.46 37.6376C166.33 37.4546 166.229 37.173 166.157 36.8069C165.983 36.9618 165.825 37.2434 165.68 37.6658C165.594 37.9193 165.536 38.1727 165.493 38.398C166.041 38.5951 166.46 38.9049 166.763 39.3132C167.066 39.7357 167.224 40.2707 167.224 40.9044C167.224 41.538 167.08 42.0449 166.792 42.4532C166.503 42.8616 166.113 43.1713 165.623 43.3685C165.132 43.5656 164.555 43.6642 163.906 43.6642C163.415 43.6642 162.982 43.6078 162.578 43.4952C162.087 43.7486 161.727 43.9739 161.467 44.1992C161.207 44.4104 161.077 44.6357 161.077 44.8892C161.077 45.0863 161.15 45.2271 161.279 45.3257C161.409 45.4242 161.64 45.4665 161.943 45.4665H166.157C166.777 45.4665 167.282 45.5932 167.672 45.8467L167.686 45.8889ZM161.424 47.7475C161.207 48.0714 161.106 48.4093 161.106 48.7473C161.106 49.1274 161.236 49.4372 161.496 49.6907C161.756 49.9441 162.087 50.1272 162.491 50.2398C162.896 50.3665 163.314 50.4229 163.732 50.4229C164.266 50.4229 164.786 50.3243 165.291 50.1413C165.796 49.9582 166.214 49.6766 166.546 49.3105C166.878 48.9303 167.037 48.4797 167.037 47.9588C167.037 47.7335 166.994 47.5504 166.921 47.4096C166.849 47.2688 166.705 47.1702 166.503 47.0998C166.301 47.0294 166.027 46.9872 165.666 46.9872H162.318C161.929 47.1843 161.64 47.4378 161.424 47.7616V47.7475ZM162.708 39.0316C162.434 39.4118 162.289 40.0314 162.289 40.9325C162.289 41.8337 162.434 42.4532 162.708 42.8334C162.982 43.1995 163.386 43.3966 163.92 43.3966C164.454 43.3966 164.872 43.2136 165.147 42.8475C165.421 42.4814 165.565 41.8478 165.565 40.9466C165.565 40.0454 165.421 39.4118 165.147 39.0457C164.872 38.6796 164.468 38.4825 163.92 38.4825C163.372 38.4825 162.982 38.6655 162.708 39.0457V39.0316Z" fill="#C99F65"/>
<path d="M176.229 46.4812C175.926 46.8332 175.536 47.1289 175.075 47.3542C174.613 47.5795 174.108 47.6921 173.531 47.6921C172.679 47.6921 171.943 47.5091 171.323 47.1289C170.702 46.7487 170.226 46.2136 169.894 45.5237C169.563 44.8337 169.404 44.0452 169.404 43.1441C169.404 42.1302 169.577 41.2432 169.909 40.4969C170.241 39.7506 170.717 39.1733 171.323 38.7791C171.929 38.3707 172.651 38.1736 173.473 38.1736C174.555 38.1736 175.378 38.4974 175.955 39.1311C176.532 39.7647 176.821 40.7363 176.821 42.0317H171.208C171.164 42.3274 171.15 42.7076 171.15 43.1581C171.15 43.9326 171.28 44.6084 171.539 45.1717C171.799 45.749 172.145 46.1855 172.564 46.4952C172.982 46.805 173.43 46.9599 173.891 46.9599C175.089 46.9599 175.969 46.3685 176.532 45.1998L176.893 45.3406C176.749 45.749 176.532 46.1291 176.229 46.4952V46.4812ZM174.959 40.0745C174.844 39.5957 174.642 39.2015 174.382 38.9199C174.122 38.6382 173.79 38.4974 173.415 38.4974C173.04 38.4974 172.708 38.6101 172.405 38.8495C172.102 39.0747 171.828 39.4408 171.626 39.9055C171.41 40.3842 171.28 40.9756 171.222 41.6797H175.132C175.161 41.1024 175.104 40.5673 174.988 40.0745H174.959Z" fill="#C99F65"/>
<path d="M182.421 38.6668C182.955 38.3289 183.561 38.1599 184.239 38.1599C185.076 38.1599 185.711 38.3852 186.144 38.8217C186.361 39.0611 186.519 39.3568 186.62 39.7088C186.721 40.0608 186.765 40.5255 186.765 41.1309V45.8057C186.765 46.1296 186.808 46.383 186.895 46.5661C186.981 46.7491 187.125 46.8758 187.327 46.9462C187.529 47.0166 187.789 47.0589 188.136 47.0589V47.425C187.039 47.3827 186.317 47.3546 185.985 47.3546C185.654 47.3546 184.975 47.3827 183.98 47.425V47.0589C184.283 47.0589 184.514 47.0166 184.672 46.9462C184.846 46.8758 184.961 46.7491 185.033 46.5661C185.105 46.383 185.149 46.1296 185.149 45.8057V40.7367C185.149 40.3143 185.12 39.9622 185.048 39.6806C184.975 39.399 184.846 39.1596 184.629 38.9907C184.413 38.8217 184.11 38.7231 183.691 38.7231C183.201 38.7231 182.768 38.8639 182.378 39.1456C181.988 39.4272 181.7 39.8073 181.483 40.3002C181.267 40.793 181.166 41.3281 181.166 41.9194V45.8198C181.166 46.1436 181.209 46.3971 181.281 46.5801C181.354 46.7632 181.483 46.8899 181.657 46.9603C181.83 47.0307 182.061 47.073 182.364 47.073V47.4391C181.354 47.3968 180.69 47.3687 180.343 47.3687C179.997 47.3687 179.29 47.3968 178.179 47.4391V47.073C178.525 47.073 178.785 47.0307 178.987 46.9603C179.175 46.8899 179.319 46.7632 179.42 46.5801C179.507 46.3971 179.55 46.1436 179.55 45.8198V40.3283C179.55 39.7933 179.449 39.3849 179.247 39.1456C179.045 38.9062 178.699 38.7795 178.179 38.7795V38.4134C178.554 38.4415 178.929 38.4697 179.29 38.4697C180.055 38.4697 180.675 38.3852 181.152 38.2303V40.2861C181.455 39.5398 181.873 39.0047 182.407 38.6668H182.421Z" fill="#C99F65"/>
<path d="M195.882 46.4116C195.608 46.7777 195.233 47.0874 194.785 47.3127C194.338 47.5521 193.804 47.6648 193.198 47.6648C192.448 47.6648 191.77 47.4817 191.178 47.1015C190.572 46.7214 190.096 46.1863 189.75 45.4823C189.403 44.7782 189.23 43.9615 189.23 43.0181C189.23 42.0747 189.403 41.2299 189.764 40.4836C190.125 39.7514 190.615 39.1741 191.25 38.7658C191.885 38.3575 192.607 38.1462 193.415 38.1462C194.223 38.1462 194.915 38.3293 195.507 38.7095C196.07 39.0756 196.344 39.5261 196.344 40.0612C196.344 40.371 196.257 40.6104 196.07 40.7793C195.897 40.9483 195.666 41.0469 195.392 41.0469C195.117 41.0469 194.872 40.9624 194.684 40.8075C194.497 40.6526 194.396 40.4414 194.396 40.1598C194.396 39.9063 194.468 39.6951 194.612 39.5261C194.757 39.3572 194.93 39.2445 195.146 39.1882C195.031 38.977 194.814 38.808 194.511 38.6672C194.208 38.5264 193.876 38.456 193.545 38.456C193.112 38.456 192.693 38.5968 192.304 38.8644C191.914 39.1319 191.597 39.5965 191.351 40.2302C191.106 40.8638 190.976 41.7086 190.976 42.7506C190.976 44.2009 191.221 45.257 191.698 45.9188C192.174 46.5805 192.794 46.9044 193.573 46.9044C194.078 46.9044 194.569 46.7636 195.031 46.4679C195.493 46.1722 195.882 45.7216 196.171 45.1021L196.517 45.2147C196.387 45.6371 196.171 46.0173 195.897 46.3975L195.882 46.4116Z" fill="#C99F65"/>
<path d="M204.64 38.4543C205.174 38.4543 205.622 38.4402 206.011 38.3979V38.75C205.766 38.7781 205.564 38.8908 205.376 39.0597C205.189 39.2428 205.015 39.5526 204.857 39.975L201.913 47.5081L201.307 49.0288C201.076 49.6061 200.816 50.0145 200.542 50.2679C200.196 50.5636 199.734 50.7185 199.143 50.7185C198.782 50.7185 198.493 50.6199 198.262 50.4369C198.032 50.2539 197.916 49.9863 197.916 49.6625C197.916 49.3809 198.003 49.1556 198.176 48.9866C198.349 48.8176 198.58 48.7331 198.883 48.7331C199.143 48.7331 199.359 48.8035 199.532 48.9443C199.705 49.0852 199.792 49.2823 199.792 49.5498C199.792 49.9018 199.633 50.1553 199.316 50.3383C199.345 50.3383 199.373 50.3524 199.417 50.3524C200.081 50.3524 200.586 49.9018 200.946 48.9866L201.581 47.3814L198.32 39.7356C198.118 39.3273 197.916 39.0597 197.714 38.9471C197.512 38.8204 197.31 38.764 197.108 38.764V38.3979C197.671 38.4684 198.262 38.5106 198.868 38.5106C199.388 38.5106 200.167 38.4684 201.206 38.3979V38.764C200.917 38.764 200.687 38.764 200.528 38.7922C200.369 38.8063 200.225 38.8626 200.124 38.9612C200.008 39.0457 199.965 39.1865 199.965 39.3695C199.965 39.5807 200.037 39.8764 200.196 40.2284L202.36 45.4664L204.337 40.3974C204.467 40.0595 204.525 39.7919 204.525 39.5948C204.525 39.3273 204.424 39.1161 204.207 38.9893C203.991 38.8626 203.659 38.7781 203.183 38.75V38.3979C203.818 38.4261 204.323 38.4543 204.684 38.4543H204.64Z" fill="#C99F65"/>
<defs>
<linearGradient id="paint0_linear_527_6520" x1="106.952" y1="69.5733" x2="106.952" y2="-4.82887" gradientUnits="userSpaceOnUse">
<stop stop-color="#C69970"/>
<stop offset="1" stop-color="#CFA953"/>
</linearGradient>
</defs>
</svg>
