<svg width="24" height="25" viewBox="0 0 24 25" fill="none" xmlns="http://www.w3.org/2000/svg">
<path d="M20.94 17.7896H19.83C19.77 18.3096 19.43 18.9596 18.58 18.9596C17.8 18.9596 17.24 18.4196 16.7 17.5996C17.5917 16.9179 18.3126 16.0381 18.8055 15.0297C19.2984 14.0213 19.5499 12.912 19.54 11.7896C19.54 7.32959 15.86 4.32959 12.01 4.32959C8.21 4.32959 4.5 7.35959 4.5 11.7996C4.5 16.1996 8.21 19.2296 12.01 19.2296C12.67 19.2296 13.33 19.1396 13.96 18.9696C14.7 20.2396 15.69 21.3296 17.56 21.3296C20.66 21.3296 21.01 18.4696 20.94 17.7896ZM15.49 15.6096C14.76 14.4996 13.83 13.6296 12.03 13.6296C10.87 13.6296 9.97 14.0096 9.41 14.4896L9.87 15.4096C10.11 15.2996 10.36 15.2596 10.62 15.2596C11.97 15.2596 12.66 16.4296 13.25 17.5896C12.87 17.6996 12.46 17.7496 12.01 17.7496C9.16 17.7496 7.93 15.7396 7.93 11.7996C7.93 7.83959 9.16 5.80959 12.01 5.80959C14.9 5.80959 16.14 7.83959 16.14 11.7996C16.13 13.3796 15.93 14.6596 15.49 15.6096Z" fill="#0A4833"/>
</svg>
