<svg width="24" height="25" viewBox="0 0 24 25" fill="none" xmlns="http://www.w3.org/2000/svg">
<path fill-rule="evenodd" clip-rule="evenodd" d="M5.78807 14.3496C5.83104 14.3639 5.87522 14.3743 5.92007 14.3806C6.20299 15.0472 6.48433 15.7146 6.76407 16.3826C7.26707 17.5846 7.77407 18.8226 7.88507 19.1786C8.02407 19.6166 8.17007 19.9146 8.33007 20.1186C8.41307 20.2226 8.50807 20.3146 8.62007 20.3846C8.67842 20.4211 8.74084 20.4506 8.80607 20.4726C9.12607 20.5926 9.41807 20.5426 9.60107 20.4816C9.70846 20.4449 9.81064 20.3945 9.90507 20.3316L9.91007 20.3296L12.7361 18.5676L16.0011 21.0696C16.0491 21.1066 16.1011 21.1376 16.1571 21.1626C16.5491 21.3326 16.9291 21.3926 17.2871 21.3446C17.6431 21.2946 17.9261 21.1456 18.1371 20.9766C18.3794 20.7813 18.5725 20.532 18.7011 20.2486L18.7101 20.2266L18.7131 20.2186L18.7151 20.2146V20.2126L18.7161 20.2116C18.7335 20.1686 18.7468 20.124 18.7561 20.0786L21.7361 5.05358C21.7455 5.00548 21.7502 4.95658 21.7501 4.90758C21.7501 4.46758 21.5841 4.04858 21.1951 3.79558C20.8611 3.57858 20.4901 3.56858 20.2551 3.58658C20.0031 3.60658 19.7691 3.66858 19.6121 3.71858C19.5242 3.74643 19.4374 3.77779 19.3521 3.81258L19.3411 3.81758L2.62707 10.3736L2.62507 10.3746C2.56852 10.3954 2.51281 10.4184 2.45807 10.4436C2.32553 10.5032 2.19839 10.5741 2.07807 10.6556C1.85107 10.8106 1.32807 11.2366 1.41707 11.9406C1.48707 12.5006 1.87107 12.8456 2.10607 13.0116C2.23407 13.1026 2.35607 13.1676 2.44607 13.2106C2.48607 13.2306 2.57207 13.2646 2.60907 13.2806L2.61907 13.2836L5.78807 14.3496ZM19.9261 5.19758H19.9241C19.9155 5.2014 19.9068 5.20507 19.8981 5.20858L3.16407 11.7736C3.15546 11.7771 3.14679 11.7804 3.13807 11.7836L3.12807 11.7866C3.0975 11.7986 3.06747 11.8119 3.03807 11.8266C3.0659 11.8425 3.09462 11.8569 3.12407 11.8696L6.26607 12.9276C6.32222 12.9465 6.37593 12.972 6.42607 13.0036L16.8031 6.92858L16.8131 6.92358C16.8534 6.89908 16.8947 6.87639 16.9371 6.85558C17.0091 6.81858 17.1241 6.76458 17.2541 6.72458C17.3441 6.69658 17.6111 6.61758 17.8991 6.71058C18.0518 6.75873 18.188 6.84886 18.2919 6.9707C18.3959 7.09253 18.4635 7.24115 18.4871 7.39958C18.5243 7.53833 18.5253 7.68431 18.4901 7.82358C18.4201 8.09858 18.2281 8.31258 18.0531 8.47658C17.9031 8.61658 15.9571 10.4926 14.0381 12.3446L11.4251 14.8646L10.9601 15.3146L16.8321 19.8166C16.9113 19.8498 16.9974 19.8636 17.0831 19.8566C17.1262 19.8507 17.1668 19.8327 17.2001 19.8046C17.2406 19.7704 17.2754 19.7298 17.3031 19.6846L17.3051 19.6836L20.1951 5.11058C20.104 5.13247 20.0148 5.16122 19.9281 5.19658L19.9261 5.19758ZM11.4651 17.5916L10.2931 16.6936L10.0091 18.4986L11.4651 17.5916ZM9.21807 14.9116L10.3831 13.7866L12.9961 11.2646L13.9691 10.3266L7.44907 14.1436L7.48407 14.2256C7.89528 15.197 8.30195 16.1704 8.70407 17.1456L8.98707 15.3456C9.01268 15.1786 9.09411 15.0263 9.21807 14.9116Z" fill="#0A4833"/>
</svg>
