<svg width="20" height="21" viewBox="0 0 20 21" fill="none" xmlns="http://www.w3.org/2000/svg">
<path fill-rule="evenodd" clip-rule="evenodd" d="M11.3471 6.11604C11.449 6.03121 11.5804 5.9903 11.7124 6.0023C11.8444 6.0143 11.9662 6.07823 12.0511 6.18004L15.3841 10.18C15.428 10.2302 15.4614 10.2887 15.4824 10.352C15.5034 10.4152 15.5115 10.4821 15.5063 10.5486C15.501 10.615 15.4825 10.6798 15.4519 10.739C15.4213 10.7982 15.3791 10.8507 15.3279 10.8934C15.2767 10.9361 15.2174 10.9681 15.1537 10.9875C15.0899 11.007 15.0229 11.0135 14.9566 11.0066C14.8903 10.9998 14.826 10.9798 14.7675 10.9477C14.709 10.9157 14.6576 10.8723 14.6161 10.82L11.2831 6.82004C11.1983 6.71818 11.1574 6.58681 11.1694 6.45479C11.1814 6.32278 11.2453 6.20093 11.3471 6.11604Z" fill="#0A4833"/>
<path fill-rule="evenodd" clip-rule="evenodd" d="M11.3471 14.8839C11.2453 14.799 11.1814 14.6772 11.1694 14.5452C11.1574 14.4132 11.1983 14.2818 11.2831 14.1799L14.6161 10.1799C14.6576 10.1277 14.709 10.0843 14.7675 10.0523C14.826 10.0202 14.8903 10.0002 14.9566 9.99336C15.0229 9.98652 15.0899 9.99302 15.1537 10.0125C15.2174 10.0319 15.2767 10.0639 15.3279 10.1066C15.3791 10.1493 15.4213 10.2018 15.4519 10.261C15.4825 10.3202 15.501 10.385 15.5063 10.4514C15.5115 10.5179 15.5034 10.5847 15.4824 10.648C15.4614 10.7113 15.428 10.7698 15.3841 10.8199L12.0511 14.8199C11.9662 14.9218 11.8444 14.9857 11.7124 14.9977C11.5804 15.0097 11.449 14.9688 11.3471 14.8839Z" fill="#0A4833"/>
<path fill-rule="evenodd" clip-rule="evenodd" d="M15 10.5C15 10.6326 14.9473 10.7598 14.8536 10.8536C14.7598 10.9473 14.6326 11 14.5 11L5 11C4.86739 11 4.74021 10.9473 4.64645 10.8536C4.55268 10.7598 4.5 10.6326 4.5 10.5C4.5 10.3674 4.55268 10.2402 4.64645 10.1464C4.74021 10.0527 4.86739 10 5 10L14.5 10C14.6326 10 14.7598 10.0527 14.8536 10.1464C14.9473 10.2402 15 10.3674 15 10.5Z" fill="#0A4833"/>
</svg>
