<svg width="33" height="33" viewBox="0 0 33 33" fill="none" xmlns="http://www.w3.org/2000/svg">
<path d="M13.7061 4.72367L24.0701 15.3557C24.2521 15.5424 24.354 15.7929 24.354 16.0537C24.354 16.3145 24.2521 16.5649 24.0701 16.7517L13.7061 27.3877C13.6213 27.4748 13.5199 27.544 13.4079 27.5912C13.296 27.6385 13.1757 27.6628 13.0541 27.6628C12.9326 27.6628 12.8122 27.6385 12.7003 27.5912C12.5883 27.544 12.4869 27.4748 12.4021 27.3877C12.2276 27.2091 12.13 26.9693 12.13 26.7197C12.13 26.47 12.2276 26.2303 12.4021 26.0517L22.1481 16.0537L12.4021 6.05767C12.2282 5.87917 12.1309 5.63984 12.1309 5.39067C12.1309 5.14149 12.2282 4.90216 12.4021 4.72367C12.4869 4.63658 12.5883 4.56736 12.7003 4.5201C12.8122 4.47284 12.9326 4.44849 13.0541 4.44849C13.1757 4.44849 13.296 4.47284 13.4079 4.5201C13.5199 4.56736 13.6213 4.63658 13.7061 4.72367Z" fill="#CBA35E"/>
</svg>
