<svg width="24" height="25" viewBox="0 0 24 25" fill="none" xmlns="http://www.w3.org/2000/svg">
<g clip-path="url(#clip0_587_6417)">
<path d="M12 4.32959C12.855 4.32959 13.732 4.35159 14.582 4.38759L15.586 4.43559L16.547 4.49259L17.447 4.55359L18.269 4.61759C19.161 4.68587 20.0004 5.06654 20.6395 5.69263C21.2786 6.31872 21.6764 7.15013 21.763 8.04059L21.803 8.46559L21.878 9.37559C21.948 10.3186 22 11.3466 22 12.3296C22 13.3126 21.948 14.3406 21.878 15.2836L21.803 16.1936C21.79 16.3396 21.777 16.4806 21.763 16.6186C21.6764 17.5092 21.2784 18.3407 20.6391 18.9669C19.9999 19.593 19.1602 19.9735 18.268 20.0416L17.448 20.1046L16.548 20.1666L15.586 20.2236L14.582 20.2716C13.7218 20.309 12.861 20.3283 12 20.3296C11.139 20.3283 10.2782 20.309 9.418 20.2716L8.414 20.2236L7.453 20.1666L6.553 20.1046L5.731 20.0416C4.83895 19.9733 3.99955 19.5926 3.36047 18.9666C2.72139 18.3405 2.32357 17.509 2.237 16.6186L2.197 16.1936L2.122 15.2836C2.04554 14.3007 2.00484 13.3154 2 12.3296C2 11.3466 2.052 10.3186 2.122 9.37559L2.197 8.46559C2.21 8.31959 2.223 8.17859 2.237 8.04059C2.32354 7.15029 2.72122 6.31901 3.36009 5.69293C3.99897 5.06686 4.83813 4.68609 5.73 4.61759L6.551 4.55359L7.451 4.49259L8.413 4.43559L9.417 4.38759C10.2775 4.35022 11.1387 4.33089 12 4.32959ZM12 6.32959C11.175 6.32959 10.326 6.35159 9.5 6.38559L8.522 6.43259L7.583 6.48759L6.701 6.54759L5.893 6.61059C5.46833 6.64072 5.06804 6.82024 4.76309 7.11732C4.45814 7.4144 4.26822 7.80985 4.227 8.23359C4.11 9.44259 4 10.9476 4 12.3296C4 13.7116 4.11 15.2166 4.227 16.4256C4.312 17.2976 5.004 17.9756 5.893 18.0486L6.701 18.1106L7.583 18.1706L8.522 18.2266L9.5 18.2736C10.326 18.3076 11.175 18.3296 12 18.3296C12.825 18.3296 13.674 18.3076 14.5 18.2736L15.478 18.2266L16.417 18.1716L17.299 18.1116L18.107 18.0486C18.5317 18.0185 18.932 17.8389 19.2369 17.5419C19.5419 17.2448 19.7318 16.8493 19.773 16.4256C19.89 15.2166 20 13.7116 20 12.3296C20 10.9476 19.89 9.44259 19.773 8.23359C19.7318 7.80985 19.5419 7.4144 19.2369 7.11732C18.932 6.82024 18.5317 6.64072 18.107 6.61059L17.299 6.54859L16.417 6.48859L15.478 6.43259L14.5 6.38559C13.6671 6.34976 12.8336 6.33109 12 6.32959ZM10 9.90459C9.99994 9.80685 10.0237 9.71058 10.0694 9.62414C10.115 9.53771 10.181 9.46372 10.2618 9.40862C10.3425 9.35353 10.4354 9.31898 10.5326 9.308C10.6297 9.29701 10.728 9.30992 10.819 9.34559L10.9 9.38559L15.1 11.8096C15.1836 11.8578 15.2544 11.9256 15.3063 12.007C15.3581 12.0885 15.3896 12.1812 15.3979 12.2774C15.4062 12.3736 15.3912 12.4704 15.3542 12.5596C15.3171 12.6488 15.2591 12.7277 15.185 12.7896L15.1 12.8496L10.9 15.2746C10.8154 15.3236 10.72 15.3512 10.6223 15.3549C10.5246 15.3587 10.4274 15.3385 10.3393 15.2961C10.2511 15.2537 10.1747 15.1904 10.1166 15.1117C10.0585 15.033 10.0205 14.9413 10.006 14.8446L10 14.7546V9.90459Z" fill="#0A4833"/>
</g>
<defs>
<clipPath id="clip0_587_6417">
<rect width="24" height="24" fill="white" transform="translate(0 0.32959)"/>
</clipPath>
</defs>
</svg>
