<svg width="33" height="33" viewBox="0 0 33 33" fill="none" xmlns="http://www.w3.org/2000/svg">
<path d="M19.2939 4.72367L8.9299 15.3557C8.74787 15.5424 8.646 15.7929 8.646 16.0537C8.646 16.3145 8.74787 16.5649 8.9299 16.7517L19.2939 27.3877C19.3787 27.4748 19.4801 27.544 19.5921 27.5912C19.704 27.6385 19.8243 27.6628 19.9459 27.6628C20.0674 27.6628 20.1878 27.6385 20.2997 27.5912C20.4117 27.544 20.5131 27.4748 20.5979 27.3877C20.7724 27.2091 20.87 26.9693 20.87 26.7197C20.87 26.47 20.7724 26.2303 20.5979 26.0517L10.8519 16.0537L20.5979 6.05767C20.7718 5.87917 20.8691 5.63984 20.8691 5.39067C20.8691 5.14149 20.7718 4.90216 20.5979 4.72367C20.5131 4.63658 20.4117 4.56736 20.2997 4.5201C20.1878 4.47284 20.0674 4.44849 19.9459 4.44849C19.8243 4.44849 19.704 4.47284 19.5921 4.5201C19.4801 4.56736 19.3787 4.63658 19.2939 4.72367Z" fill="#CBA35E"/>
</svg>
