<svg width="24" height="25" viewBox="0 0 24 25" fill="none" xmlns="http://www.w3.org/2000/svg">
<path fill-rule="evenodd" clip-rule="evenodd" d="M5.78783 14.3496C5.83079 14.3639 5.87498 14.3743 5.91983 14.3806C6.20275 15.0472 6.48408 15.7146 6.76383 16.3826C7.26683 17.5846 7.77383 18.8226 7.88483 19.1786C8.02383 19.6166 8.16983 19.9146 8.32983 20.1186C8.41283 20.2226 8.50783 20.3146 8.61983 20.3846C8.67817 20.4211 8.7406 20.4506 8.80583 20.4726C9.12583 20.5926 9.41783 20.5426 9.60083 20.4816C9.70822 20.4449 9.8104 20.3945 9.90483 20.3316L9.90983 20.3296L12.7358 18.5676L16.0008 21.0696C16.0488 21.1066 16.1008 21.1376 16.1568 21.1626C16.5488 21.3326 16.9288 21.3926 17.2868 21.3446C17.6428 21.2946 17.9258 21.1456 18.1368 20.9766C18.3791 20.7813 18.5723 20.532 18.7008 20.2486L18.7098 20.2266L18.7128 20.2186L18.7148 20.2146V20.2126L18.7158 20.2116C18.7332 20.1686 18.7466 20.124 18.7558 20.0786L21.7358 5.05358C21.7452 5.00548 21.7499 4.95658 21.7498 4.90758C21.7498 4.46758 21.5838 4.04858 21.1948 3.79558C20.8608 3.57858 20.4898 3.56858 20.2548 3.58658C20.0028 3.60658 19.7688 3.66858 19.6118 3.71858C19.5239 3.74643 19.4372 3.77779 19.3518 3.81258L19.3408 3.81758L2.62683 10.3736L2.62483 10.3746C2.56828 10.3954 2.51257 10.4184 2.45783 10.4436C2.32529 10.5032 2.19815 10.5741 2.07783 10.6556C1.85083 10.8106 1.32783 11.2366 1.41683 11.9406C1.48683 12.5006 1.87083 12.8456 2.10583 13.0116C2.23383 13.1026 2.35583 13.1676 2.44583 13.2106C2.48583 13.2306 2.57183 13.2646 2.60883 13.2806L2.61883 13.2836L5.78783 14.3496ZM19.9258 5.19758H19.9238C19.9152 5.2014 19.9066 5.20507 19.8978 5.20858L3.16383 11.7736C3.15522 11.7771 3.14655 11.7804 3.13783 11.7836L3.12783 11.7866C3.09726 11.7986 3.06723 11.8119 3.03783 11.8266C3.06566 11.8425 3.09437 11.8569 3.12383 11.8696L6.26583 12.9276C6.32197 12.9465 6.37568 12.972 6.42583 13.0036L16.8028 6.92858L16.8128 6.92358C16.8531 6.89908 16.8945 6.87639 16.9368 6.85558C17.0088 6.81858 17.1238 6.76458 17.2538 6.72458C17.3438 6.69658 17.6108 6.61758 17.8988 6.71058C18.0516 6.75873 18.1877 6.84886 18.2917 6.9707C18.3957 7.09253 18.4633 7.24115 18.4868 7.39958C18.5241 7.53833 18.5251 7.68431 18.4898 7.82358C18.4198 8.09858 18.2278 8.31258 18.0528 8.47658C17.9028 8.61658 15.9568 10.4926 14.0378 12.3446L11.4248 14.8646L10.9598 15.3146L16.8318 19.8166C16.9111 19.8498 16.9972 19.8636 17.0828 19.8566C17.126 19.8507 17.1666 19.8327 17.1998 19.8046C17.2404 19.7704 17.2751 19.7298 17.3028 19.6846L17.3048 19.6836L20.1948 5.11058C20.1038 5.13247 20.0145 5.16122 19.9278 5.19658L19.9258 5.19758ZM11.4648 17.5916L10.2928 16.6936L10.0088 18.4986L11.4648 17.5916ZM9.21783 14.9116L10.3828 13.7866L12.9958 11.2646L13.9688 10.3266L7.44883 14.1436L7.48383 14.2256C7.89503 15.197 8.3017 16.1704 8.70383 17.1456L8.98683 15.3456C9.01243 15.1786 9.09386 15.0263 9.21783 14.9116Z" fill="white"/>
</svg>
