<svg width="24" height="25" viewBox="0 0 24 25" fill="none" xmlns="http://www.w3.org/2000/svg">
<g clip-path="url(#clip0_587_6402)">
<path fill-rule="evenodd" clip-rule="evenodd" d="M4 12.3296C4.00014 10.79 4.44451 9.28323 5.27979 7.98997C6.11506 6.69671 7.30576 5.67193 8.70901 5.0386C10.1123 4.40527 11.6684 4.19029 13.1908 4.41946C14.7132 4.64863 16.1372 5.31221 17.2918 6.33058C18.4464 7.34895 19.2826 8.67885 19.7002 10.1607C20.1177 11.6425 20.0988 13.2134 19.6457 14.6848C19.1926 16.1561 18.3246 17.4655 17.1458 18.4558C15.967 19.446 14.5275 20.0751 13 20.2676V14.3296H15C15.2652 14.3296 15.5196 14.2242 15.7071 14.0367C15.8946 13.8492 16 13.5948 16 13.3296C16 13.0644 15.8946 12.81 15.7071 12.6225C15.5196 12.4349 15.2652 12.3296 15 12.3296H13V10.3296C13 10.0644 13.1054 9.81002 13.2929 9.62248C13.4804 9.43495 13.7348 9.32959 14 9.32959H14.5C14.7652 9.32959 15.0196 9.22423 15.2071 9.0367C15.3946 8.84916 15.5 8.59481 15.5 8.32959C15.5 8.06437 15.3946 7.81002 15.2071 7.62248C15.0196 7.43495 14.7652 7.32959 14.5 7.32959H14C13.2044 7.32959 12.4413 7.64566 11.8787 8.20827C11.3161 8.77088 11 9.53394 11 10.3296V12.3296H9C8.73478 12.3296 8.48043 12.4349 8.29289 12.6225C8.10536 12.81 8 13.0644 8 13.3296C8 13.5948 8.10536 13.8492 8.29289 14.0367C8.48043 14.2242 8.73478 14.3296 9 14.3296H11V20.2676C9.0667 20.0238 7.28882 19.0829 6 17.6213C4.71119 16.1598 4.00003 14.2782 4 12.3296ZM12 22.3296C17.523 22.3296 22 17.8526 22 12.3296C22 6.80659 17.523 2.32959 12 2.32959C6.477 2.32959 2 6.80659 2 12.3296C2 17.8526 6.477 22.3296 12 22.3296Z" fill="#0A4833"/>
</g>
<defs>
<clipPath id="clip0_587_6402">
<rect width="24" height="24" fill="white" transform="translate(0 0.32959)"/>
</clipPath>
</defs>
</svg>
