<svg width="24" height="25" viewBox="0 0 24 25" fill="none" xmlns="http://www.w3.org/2000/svg">
<path d="M7.8 2.32959H16.2C19.4 2.32959 22 4.92959 22 8.12959V16.5296C22 18.0678 21.3889 19.5431 20.3012 20.6308C19.2135 21.7185 17.7383 22.3296 16.2 22.3296H7.8C4.6 22.3296 2 19.7296 2 16.5296V8.12959C2 6.59133 2.61107 5.11608 3.69878 4.02837C4.78649 2.94066 6.26174 2.32959 7.8 2.32959ZM7.6 4.32959C6.64522 4.32959 5.72955 4.70887 5.05442 5.38401C4.37928 6.05914 4 6.97481 4 7.92959V16.7296C4 18.7196 5.61 20.3296 7.6 20.3296H16.4C17.3548 20.3296 18.2705 19.9503 18.9456 19.2752C19.6207 18.6 20 17.6844 20 16.7296V7.92959C20 5.93959 18.39 4.32959 16.4 4.32959H7.6ZM17.25 5.82959C17.5815 5.82959 17.8995 5.96129 18.1339 6.19571C18.3683 6.43013 18.5 6.74807 18.5 7.07959C18.5 7.41111 18.3683 7.72905 18.1339 7.96347C17.8995 8.19789 17.5815 8.32959 17.25 8.32959C16.9185 8.32959 16.6005 8.19789 16.3661 7.96347C16.1317 7.72905 16 7.41111 16 7.07959C16 6.74807 16.1317 6.43013 16.3661 6.19571C16.6005 5.96129 16.9185 5.82959 17.25 5.82959ZM12 7.32959C13.3261 7.32959 14.5979 7.85637 15.5355 8.79406C16.4732 9.73174 17 11.0035 17 12.3296C17 13.6557 16.4732 14.9274 15.5355 15.8651C14.5979 16.8028 13.3261 17.3296 12 17.3296C10.6739 17.3296 9.40215 16.8028 8.46447 15.8651C7.52678 14.9274 7 13.6557 7 12.3296C7 11.0035 7.52678 9.73174 8.46447 8.79406C9.40215 7.85637 10.6739 7.32959 12 7.32959ZM12 9.32959C11.2044 9.32959 10.4413 9.64566 9.87868 10.2083C9.31607 10.7709 9 11.5339 9 12.3296C9 13.1252 9.31607 13.8883 9.87868 14.4509C10.4413 15.0135 11.2044 15.3296 12 15.3296C12.7956 15.3296 13.5587 15.0135 14.1213 14.4509C14.6839 13.8883 15 13.1252 15 12.3296C15 11.5339 14.6839 10.7709 14.1213 10.2083C13.5587 9.64566 12.7956 9.32959 12 9.32959Z" fill="#0A4833"/>
</svg>
