<svg width="25" height="16" viewBox="0 0 25 16" fill="none" xmlns="http://www.w3.org/2000/svg">
<path fill-rule="evenodd" clip-rule="evenodd" d="M0 1.32983C0 1.05369 0.223858 0.829834 0.5 0.829834H24.5C24.7761 0.829834 25 1.05369 25 1.32983C25 1.60598 24.7761 1.82983 24.5 1.82983H0.5C0.223858 1.82983 0 1.60598 0 1.32983Z" fill="#D6A857"/>
<path fill-rule="evenodd" clip-rule="evenodd" d="M4 8.32983C4 8.05369 4.22386 7.82983 4.5 7.82983H24.5C24.7761 7.82983 25 8.05369 25 8.32983C25 8.60598 24.7761 8.82983 24.5 8.82983H4.5C4.22386 8.82983 4 8.60598 4 8.32983Z" fill="#D6A857"/>
<path fill-rule="evenodd" clip-rule="evenodd" d="M16 15.3298C16 15.0537 16.2239 14.8298 16.5 14.8298H24.5C24.7761 14.8298 25 15.0537 25 15.3298C25 15.606 24.7761 15.8298 24.5 15.8298H16.5C16.2239 15.8298 16 15.606 16 15.3298Z" fill="#D6A857"/>
</svg>
