<svg width="240" height="55" viewBox="0 0 240 55" fill="none" xmlns="http://www.w3.org/2000/svg">
<path d="M121.389 2.65831C121.045 1.69312 120.397 0.952707 119.458 0.45028C118.506 -0.0521461 117.541 -0.131477 116.576 0.199067C114.989 0.75438 113.31 2.01045 111.539 3.94082C111.512 4.09948 111.486 4.19203 111.486 4.19203L111.353 4.15237C111.063 4.48291 110.745 4.82668 110.454 5.19689C109.172 6.98182 106.514 10.8558 103.711 15.6817C100.657 21.4464 97.4045 28.7184 93.9404 37.5505C93.676 38.2513 93.4115 38.9388 93.1471 39.6395L91.0977 44.558C90.3441 46.4355 89.7359 47.6519 89.4714 48.9609C89.2599 49.1195 88.9955 49.503 88.4137 50.1376C86.8139 51.8829 85.2008 53.0728 83.3894 53.0728C82.1995 53.0728 80.8773 52.5836 80.8773 51.1953C80.8773 50.4946 81.155 49.3046 82.6226 45.6687L98.9647 5.79187C99.1101 5.51421 99.3084 5.23655 99.3084 4.87956C99.3084 4.60191 99.0969 4.25814 98.6077 4.25814C98.3961 4.25814 98.1185 4.25814 97.9069 4.32425C97.7747 4.32425 97.6293 4.39036 97.4838 4.39036C96.1616 4.60191 94.8263 4.66802 93.0942 4.66802C90.9258 4.66802 90.3705 4.52258 89.4582 4.52258C89.2467 4.52258 88.5459 4.52258 88.5459 4.94567C88.5459 5.50099 89.7359 5.50099 90.2912 5.50099H91.6134C92.5257 5.50099 92.9355 5.85797 92.9355 6.0563C92.9355 6.20174 92.8694 6.33396 92.724 6.69094L77.0827 44.7431C76.1043 47.1892 75.3374 48.5113 75.3374 50.402C75.3374 53.3373 77.7834 54.6594 81.0624 54.6594C84.0638 54.6594 86.2321 53.681 87.9113 52.2927C88.5591 51.7374 89.0484 51.2482 89.4053 50.8119C89.7359 53.2976 92.0365 54.4479 95.0642 54.4479C98.092 54.4479 100.234 53.4695 101.9 52.0812C103.645 50.6136 104.2 49.4897 104.2 49.2121C104.2 48.8683 103.777 48.6568 103.645 48.6568C103.368 48.6568 103.156 49.0799 102.389 49.9128C100.776 51.6581 99.1762 52.8481 97.3648 52.8481C96.1749 52.8481 94.8527 52.3589 94.8527 50.9573C94.8527 50.2566 95.1304 49.0666 96.598 45.4439L97.8673 42.35C99.3745 40.3006 102.151 36.9026 106.197 32.1296C111.737 25.6113 115.637 20.4548 117.911 16.6601C121.442 10.7765 122.605 6.09597 121.389 2.63187V2.65831ZM111.829 22.8215C110.15 25.2014 106.911 29.4852 98.8721 39.4677C103.434 27.7929 105.232 22.4909 106.461 19.4764C110.653 9.01797 112.914 2.96241 116.735 1.61379C118.414 1.01882 119.524 1.53446 120.093 3.12107C121.336 6.65128 118.586 13.2093 111.843 22.8083L111.829 22.8215Z" fill="url(#paint0_linear_512_288)"/>
<path d="M6.42548 43.0773V8.58172H0.60791V7.16699H18.2325C22.1329 7.16699 25.4648 7.72231 28.2414 8.81971C31.0179 9.93034 33.3317 12.0855 35.1828 15.3116C37.0338 18.5377 37.9726 22.0282 37.9726 25.7964C37.9726 29.7894 36.9545 33.3461 34.9051 36.4928C32.869 39.6264 30.5023 41.7551 27.8447 42.8525C25.1739 43.9631 21.9346 44.5052 18.1135 44.5052H0.60791V43.0905H6.42548V43.0773ZM13.0496 8.58172V43.0905H17.902C20.4405 43.0905 22.5163 42.8525 24.1162 42.3897C25.716 41.927 27.0514 40.9089 28.0959 39.3619C29.1404 37.8018 29.8544 35.8317 30.2246 33.4254C30.5948 31.0322 30.7799 27.8987 30.7799 24.0379C30.7799 19.3971 30.185 15.933 29.0082 13.6456C27.8315 11.3583 26.3771 9.94356 24.6715 9.40147C22.9659 8.85938 20.7314 8.58172 17.9945 8.58172H13.0364H13.0496Z" fill="white"/>
<path d="M49.9248 22.1871V43.0774H53.574V44.4921H40.6299V43.0774H44.5303V24.0249H40.6299V22.6102H44.5832C46.4871 22.6102 48.2588 22.4647 49.938 22.1871H49.9248ZM44.332 11.4642C44.332 10.6445 44.6361 9.94373 45.2443 9.34875C45.8392 8.75377 46.5532 8.46289 47.373 8.46289C48.1927 8.46289 48.9067 8.75377 49.5017 9.33553C50.1099 9.91728 50.414 10.6313 50.414 11.4642C50.414 12.2972 50.1231 13.0641 49.5281 13.6326C48.9331 14.2144 48.2192 14.492 47.3862 14.492C46.5532 14.492 45.8392 14.2011 45.2443 13.6194C44.6493 13.0376 44.3584 12.3104 44.3584 11.4642H44.332Z" fill="white"/>
<path d="M53.6401 33.4914C53.6401 30.2785 54.7375 27.5549 56.9588 25.2939C59.1668 23.033 61.9037 21.9092 65.1695 21.9092C68.4353 21.9092 71.0664 22.9934 73.2877 25.1485C75.5089 27.3037 76.6195 30.0141 76.6195 33.2667C76.6195 36.5192 75.4692 39.4016 73.1687 41.7154C70.8681 44.0292 68.1444 45.1795 65.0108 45.1795C61.8773 45.1795 59.2726 44.0556 57.0117 41.7947C54.764 39.5338 53.6401 36.7704 53.6401 33.4782V33.4914ZM70.3524 33.4914C70.3524 30.0802 70.2334 27.8193 70.0087 26.7219C69.7707 25.6245 69.255 24.7651 68.4485 24.1172C67.642 23.4826 66.5313 23.152 65.1166 23.152C63.7812 23.152 62.6706 23.4826 61.8112 24.1437C60.9518 24.8047 60.4097 25.6774 60.2113 26.7748C59.9998 27.8722 59.9072 30.1199 59.9072 33.5443C59.9072 36.9688 60.0262 39.2561 60.2775 40.3667C60.5287 41.4774 61.0708 42.35 61.9169 42.9846C62.7631 43.6193 63.8209 43.9234 65.1034 43.9234C66.3859 43.9234 67.4833 43.6061 68.3427 42.9582C69.2021 42.3236 69.7574 41.4245 69.9822 40.2874C70.207 39.1503 70.326 36.8762 70.326 33.4782L70.3524 33.4914Z" fill="white"/>
<path d="M116.444 22.1871V43.0774H120.093V44.4921H107.149V43.0774H111.049V24.0249H107.149V22.6102H111.102C112.993 22.6102 114.778 22.4647 116.444 22.1871ZM110.851 11.4642C110.851 10.6445 111.155 9.94373 111.75 9.34875C112.345 8.75377 113.059 8.46289 113.879 8.46289C114.699 8.46289 115.399 8.75377 116.007 9.33553C116.616 9.91728 116.907 10.6313 116.907 11.4642C116.907 12.2972 116.616 13.0641 116.021 13.6326C115.426 14.2144 114.712 14.492 113.879 14.492C113.046 14.492 112.319 14.2011 111.737 13.6194C111.142 13.0376 110.851 12.3104 110.851 11.4642Z" fill="white"/>
<path d="M151.6 30.6488C151.679 30.8207 151.811 30.9397 151.996 31.0058C152.182 31.0719 152.42 31.1116 152.737 31.1116V31.4553C151.732 31.4157 151.071 31.3892 150.767 31.3892C150.463 31.3892 149.841 31.4157 148.929 31.4553V31.1116C149.207 31.1116 149.418 31.0719 149.564 31.0058C149.722 30.9397 149.828 30.8207 149.894 30.6488C149.96 30.4769 150 30.2389 150 29.9348V25.175C150 24.7519 149.974 24.4213 149.934 24.1569C149.881 23.8925 149.775 23.6809 149.59 23.5223C149.405 23.3636 149.127 23.2711 148.757 23.2711C148.334 23.2711 147.964 23.4033 147.62 23.6677C147.29 23.9321 147.012 24.2891 146.827 24.7387C146.628 25.1882 146.536 25.7039 146.536 26.2459V29.9216C146.536 30.2257 146.576 30.4637 146.655 30.6356C146.734 30.8075 146.866 30.9264 147.038 30.9926C147.21 31.0587 147.461 31.0983 147.765 31.0983V31.4421C146.761 31.4024 146.1 31.376 145.795 31.376C145.491 31.376 144.87 31.4024 143.944 31.4421V31.0983C144.222 31.0983 144.434 31.0587 144.592 30.9926C144.751 30.9264 144.857 30.8075 144.923 30.6356C144.989 30.4637 145.029 30.2257 145.029 29.9216V25.1618C145.029 24.7387 145.002 24.4081 144.962 24.1437C144.91 23.8793 144.804 23.6677 144.619 23.509C144.434 23.3504 144.156 23.2578 143.786 23.2578C143.363 23.2578 142.979 23.3901 142.649 23.6545C142.305 23.9189 142.04 24.2759 141.855 24.7387C141.657 25.2014 141.564 25.7039 141.564 26.2459V29.9084C141.564 30.2125 141.604 30.4505 141.67 30.6223C141.736 30.7942 141.855 30.9132 142.014 30.9793C142.173 31.0454 142.384 31.0851 142.662 31.0851V31.4289C141.736 31.3892 141.128 31.3628 140.811 31.3628C140.494 31.3628 139.846 31.3892 138.841 31.4289V31.0851C139.145 31.0851 139.396 31.0454 139.581 30.9793C139.766 30.9132 139.899 30.7942 139.978 30.6223C140.057 30.4505 140.097 30.2125 140.097 29.9084V24.7651C140.097 24.2627 140.004 23.8925 139.819 23.6545C139.634 23.4297 139.304 23.3107 138.841 23.3107V22.967C139.185 22.9934 139.528 23.0198 139.859 23.0198C140.56 23.0198 141.128 22.9405 141.564 22.7951V24.7254C141.829 24.0511 142.212 23.5487 142.688 23.2314C143.178 22.9008 143.693 22.7422 144.262 22.7422C145.002 22.7422 145.571 22.9537 145.981 23.3636C146.258 23.6677 146.417 24.104 146.483 24.6858C146.761 23.9983 147.131 23.4958 147.62 23.1917C148.109 22.8876 148.638 22.7422 149.233 22.7422C149.974 22.7422 150.555 22.9537 150.939 23.3636C151.137 23.5884 151.282 23.866 151.362 24.1966C151.441 24.5403 151.481 24.9767 151.481 25.5188V29.9084C151.481 30.2125 151.52 30.4505 151.6 30.6223V30.6488Z" fill="#D6A857"/>
<path d="M157.841 23.4296C157.576 23.1917 157.206 23.0859 156.717 23.0859C155.937 23.0859 155.395 23.2842 155.091 23.6676C155.315 23.7205 155.487 23.8395 155.646 24.0114C155.791 24.1965 155.871 24.4081 155.871 24.6725C155.871 24.9501 155.778 25.1749 155.606 25.3336C155.434 25.4922 155.196 25.5716 154.906 25.5716C154.628 25.5716 154.403 25.479 154.244 25.2939C154.086 25.1088 154.006 24.8576 154.006 24.5535C154.006 24.1304 154.258 23.7337 154.773 23.3768C155.038 23.2049 155.368 23.0462 155.765 22.9404C156.162 22.8214 156.598 22.7686 157.074 22.7686C157.523 22.7686 157.92 22.8214 158.264 22.9272C158.608 23.033 158.872 23.1917 159.07 23.3768C159.322 23.628 159.493 23.9321 159.586 24.2758C159.679 24.6196 159.731 25.0824 159.731 25.6906V30.2653C159.731 30.5429 159.771 30.7413 159.85 30.8603C159.93 30.9793 160.062 31.0454 160.247 31.0454C160.379 31.0454 160.498 31.0189 160.617 30.9528C160.723 30.8999 160.855 30.8074 160.988 30.6884L161.173 30.966C160.974 31.1115 160.816 31.2305 160.697 31.3098C160.564 31.3891 160.419 31.4552 160.26 31.5081C160.088 31.561 159.903 31.5742 159.679 31.5742C159.15 31.5742 158.779 31.442 158.568 31.1776C158.356 30.9132 158.264 30.5562 158.264 30.1066C157.947 30.6355 157.55 31.0189 157.1 31.2305C156.651 31.4552 156.188 31.561 155.725 31.561C155.342 31.561 154.998 31.4949 154.681 31.3627C154.363 31.2305 154.112 31.0321 153.927 30.7545C153.742 30.4768 153.636 30.1331 153.636 29.7232C153.636 29.3133 153.742 28.9563 153.94 28.6522C154.139 28.3614 154.43 28.0969 154.8 27.8721C155.17 27.6474 155.659 27.4094 156.281 27.145C156.386 27.1053 156.651 26.9995 157.074 26.8276C157.497 26.6558 157.788 26.4839 157.973 26.312C158.158 26.1401 158.251 25.955 158.251 25.7434V24.7254C158.251 24.0907 158.118 23.6544 157.854 23.4164L157.841 23.4296ZM157.841 26.7747C157.656 26.8805 157.259 27.0788 156.664 27.3697C156.347 27.5152 156.082 27.6738 155.857 27.8325C155.633 27.9911 155.448 28.2027 155.302 28.4671C155.144 28.7316 155.064 29.0621 155.064 29.4588C155.064 29.9347 155.183 30.2917 155.421 30.5429C155.659 30.7809 155.976 30.9131 156.373 30.9131C157.1 30.9131 157.722 30.5033 158.224 29.6703V26.4442C158.145 26.5632 158.013 26.6822 157.828 26.788L157.841 26.7747Z" fill="#D6A857"/>
<path d="M166.739 22.9932V23.3238H164.306V29.6967C164.306 30.1991 164.398 30.5561 164.57 30.7676C164.742 30.9792 165.007 31.0982 165.35 31.0982C165.694 31.0982 165.985 30.966 166.223 30.6883C166.461 30.4106 166.672 29.9611 166.831 29.3397L167.148 29.419C166.884 30.9395 166.17 31.6932 165.007 31.6932C164.636 31.6932 164.332 31.6535 164.094 31.5609C163.856 31.4684 163.645 31.3362 163.446 31.1511C163.208 30.9131 163.05 30.609 162.944 30.2652C162.851 29.9082 162.799 29.4455 162.799 28.8505V23.337H161.212V23.0065H162.799V20.4943C163.42 20.4811 163.909 20.4018 164.279 20.2563V23.0065H166.712L166.739 22.9932Z" fill="#D6A857"/>
<path d="M173.852 30.5034C173.601 30.8471 173.257 31.138 172.847 31.3495C172.437 31.5743 171.948 31.6801 171.393 31.6801C170.705 31.6801 170.084 31.5082 169.542 31.1512C168.986 30.7942 168.55 30.2918 168.233 29.6307C167.915 28.9696 167.757 28.2028 167.757 27.3169C167.757 26.4311 167.916 25.6377 168.246 24.937C168.577 24.2495 169.026 23.7074 169.608 23.3239C170.19 22.9405 170.851 22.7422 171.591 22.7422C172.332 22.7422 172.966 22.9141 173.508 23.2711C174.024 23.6148 174.275 24.0379 174.275 24.5403C174.275 24.8312 174.196 25.056 174.024 25.2147C173.865 25.3733 173.654 25.4659 173.403 25.4659C173.151 25.4659 172.927 25.3865 172.755 25.2411C172.583 25.0957 172.49 24.8973 172.49 24.6329C172.49 24.3949 172.556 24.1966 172.689 24.0379C172.821 23.8793 172.979 23.7735 173.178 23.7206C173.072 23.5223 172.874 23.3636 172.596 23.2314C172.318 23.0992 172.014 23.0331 171.71 23.0331C171.313 23.0331 170.93 23.1653 170.573 23.4165C170.216 23.6677 169.925 24.104 169.7 24.699C169.476 25.294 169.357 26.0873 169.357 27.0657C169.357 28.4275 169.581 29.4192 170.018 30.0406C170.454 30.662 171.023 30.9661 171.723 30.9661C172.186 30.9661 172.636 30.8339 173.059 30.5562C173.482 30.2786 173.839 29.8555 174.103 29.2737L174.421 29.3927C174.302 29.7894 174.103 30.1464 173.852 30.4901V30.5034Z" fill="#D6A857"/>
<path d="M179.207 23.218C179.696 22.9139 180.251 22.7553 180.86 22.7553C181.627 22.7553 182.208 22.9668 182.605 23.3767C182.816 23.6015 182.962 23.8791 183.054 24.2097C183.147 24.5402 183.187 24.9765 183.187 25.545V29.9347C183.187 30.2388 183.226 30.4768 183.306 30.6486C183.385 30.8205 183.517 30.9395 183.702 31.0056C183.874 31.0717 184.125 31.1114 184.43 31.1114V31.4552C183.398 31.4155 182.737 31.3891 182.459 31.3891C182.155 31.3891 181.534 31.4155 180.608 31.4552V31.1114C180.886 31.1114 181.098 31.0717 181.256 31.0056C181.415 30.9395 181.521 30.8205 181.6 30.6486C181.666 30.4768 181.706 30.2388 181.706 29.9347V25.1748C181.706 24.7782 181.679 24.4476 181.613 24.1832C181.547 23.9188 181.415 23.694 181.23 23.5353C181.032 23.3635 180.754 23.2841 180.384 23.2841C179.934 23.2841 179.537 23.4163 179.194 23.6676C178.85 23.9188 178.572 24.2758 178.374 24.7253C178.176 25.1748 178.083 25.6905 178.083 26.259V29.9347C178.083 30.2388 178.123 30.4768 178.189 30.6486C178.255 30.8205 178.374 30.9395 178.533 31.0056C178.691 31.0717 178.903 31.1114 179.167 31.1114V31.4552C178.242 31.4155 177.634 31.3891 177.329 31.3891C177.025 31.3891 176.364 31.4155 175.346 31.4552V31.1114C175.664 31.1114 175.902 31.0717 176.087 31.0056C176.272 30.9395 176.391 30.8205 176.483 30.6486C176.563 30.4768 176.602 30.2388 176.602 29.9347V20.5472C176.602 20.0448 176.51 19.6746 176.325 19.4366C176.139 19.2118 175.809 19.0928 175.346 19.0928V18.7491C175.69 18.7755 176.034 18.802 176.364 18.802C177.065 18.802 177.647 18.7226 178.07 18.564V24.7121C178.348 24.0113 178.731 23.5089 179.22 23.2048L179.207 23.218Z" fill="#D6A857"/>
<path d="M197.903 30.6488C197.982 30.8207 198.114 30.9397 198.299 31.0058C198.484 31.0719 198.722 31.1116 199.04 31.1116V31.4553C198.035 31.4157 197.374 31.3892 197.07 31.3892C196.765 31.3892 196.144 31.4157 195.232 31.4553V31.1116C195.509 31.1116 195.721 31.0719 195.866 31.0058C196.012 30.9397 196.131 30.8207 196.197 30.6488C196.263 30.4769 196.303 30.2389 196.303 29.9348V25.175C196.303 24.7519 196.276 24.4213 196.237 24.1569C196.184 23.8925 196.078 23.6809 195.893 23.5223C195.708 23.3636 195.43 23.2711 195.06 23.2711C194.637 23.2711 194.267 23.4033 193.923 23.6677C193.592 23.9321 193.315 24.2891 193.129 24.7387C192.931 25.1882 192.839 25.7039 192.839 26.2459V29.9216C192.839 30.2257 192.878 30.4637 192.958 30.6356C193.037 30.8075 193.169 30.9264 193.341 30.9926C193.513 31.0587 193.764 31.0983 194.068 31.0983V31.4421C193.063 31.4024 192.402 31.376 192.098 31.376C191.794 31.376 191.173 31.4024 190.247 31.4421V31.0983C190.525 31.0983 190.736 31.0587 190.895 30.9926C191.054 30.9264 191.159 30.8075 191.226 30.6356C191.292 30.4637 191.331 30.2257 191.331 29.9216V25.1618C191.331 24.7387 191.305 24.4081 191.265 24.1437C191.212 23.8793 191.107 23.6677 190.921 23.509C190.736 23.3504 190.459 23.2578 190.102 23.2578C189.679 23.2578 189.295 23.3901 188.965 23.6545C188.621 23.9189 188.356 24.2759 188.171 24.7387C187.973 25.2014 187.88 25.7039 187.88 26.2459V29.9084C187.88 30.2125 187.92 30.4505 187.986 30.6223C188.052 30.7942 188.171 30.9132 188.33 30.9793C188.489 31.0454 188.7 31.0851 188.978 31.0851V31.4289C188.052 31.3892 187.444 31.3628 187.127 31.3628C186.809 31.3628 186.162 31.3892 185.144 31.4289V31.0851C185.461 31.0851 185.699 31.0454 185.884 30.9793C186.056 30.9132 186.188 30.7942 186.281 30.6223C186.36 30.4505 186.4 30.2125 186.4 29.9084V24.7651C186.4 24.2627 186.307 23.8925 186.122 23.6545C185.937 23.4297 185.62 23.3107 185.144 23.3107V22.967C185.487 22.9934 185.831 23.0198 186.162 23.0198C186.862 23.0198 187.431 22.9405 187.867 22.7951V24.7254C188.132 24.0511 188.515 23.5487 188.991 23.2314C189.467 22.9008 189.996 22.7422 190.564 22.7422C191.305 22.7422 191.887 22.9537 192.27 23.3636C192.548 23.6677 192.706 24.104 192.772 24.6858C193.05 23.9983 193.42 23.4958 193.91 23.1917C194.399 22.8876 194.928 22.7422 195.523 22.7422C196.263 22.7422 196.832 22.9537 197.228 23.3636C197.427 23.5884 197.559 23.866 197.651 24.1966C197.731 24.5403 197.77 24.9767 197.77 25.5188V29.9084C197.77 30.2125 197.81 30.4505 197.889 30.6223L197.903 30.6488Z" fill="#D6A857"/>
<path d="M204.143 23.4296C203.879 23.1917 203.495 23.0859 203.019 23.0859C202.239 23.0859 201.697 23.2842 201.393 23.6676C201.618 23.7205 201.79 23.8395 201.948 24.0114C202.094 24.1965 202.173 24.4081 202.173 24.6725C202.173 24.9501 202.08 25.1749 201.909 25.3336C201.737 25.4922 201.499 25.5716 201.208 25.5716C200.93 25.5716 200.705 25.479 200.547 25.2939C200.388 25.1088 200.309 24.8576 200.309 24.5535C200.309 24.1304 200.56 23.7337 201.076 23.3768C201.34 23.2049 201.671 23.0462 202.067 22.9404C202.464 22.8214 202.9 22.7686 203.376 22.7686C203.826 22.7686 204.222 22.8214 204.566 22.9272C204.91 23.033 205.174 23.1917 205.373 23.3768C205.624 23.628 205.796 23.9321 205.888 24.2758C205.981 24.6196 206.034 25.0824 206.034 25.6906V30.2653C206.034 30.5429 206.073 30.7413 206.153 30.8603C206.232 30.9793 206.364 31.0454 206.536 31.0454C206.668 31.0454 206.787 31.0189 206.906 30.9528C207.012 30.8999 207.144 30.8074 207.277 30.6884L207.462 30.966C207.263 31.1115 207.105 31.2305 206.973 31.3098C206.84 31.3891 206.695 31.4552 206.536 31.5081C206.378 31.561 206.179 31.5742 205.954 31.5742C205.426 31.5742 205.055 31.442 204.844 31.1776C204.632 30.9132 204.54 30.5562 204.54 30.1066C204.222 30.6355 203.826 31.0189 203.376 31.2305C202.927 31.4552 202.464 31.561 202.001 31.561C201.618 31.561 201.274 31.4949 200.957 31.3627C200.639 31.2305 200.388 31.0321 200.203 30.7545C200.018 30.4768 199.912 30.1331 199.912 29.7232C199.912 29.3133 200.018 28.9563 200.216 28.6522C200.415 28.3614 200.705 28.0969 201.076 27.8721C201.446 27.6474 201.935 27.4094 202.556 27.145C202.662 27.1053 202.927 26.9995 203.35 26.8276C203.773 26.6558 204.064 26.4839 204.249 26.312C204.434 26.1401 204.526 25.955 204.526 25.7434V24.7254C204.526 24.0907 204.394 23.6544 204.13 23.4164L204.143 23.4296ZM204.143 26.7747C203.958 26.8805 203.561 27.0788 202.966 27.3697C202.649 27.5152 202.385 27.6738 202.16 27.8325C201.935 27.9911 201.75 28.2027 201.604 28.4671C201.446 28.7316 201.366 29.0621 201.366 29.4588C201.366 29.9347 201.485 30.2917 201.723 30.5429C201.961 30.7809 202.279 30.9131 202.675 30.9131C203.403 30.9131 204.024 30.5033 204.526 29.6703V26.4442C204.447 26.5632 204.315 26.6822 204.13 26.788L204.143 26.7747Z" fill="#D6A857"/>
<path d="M215.818 30.8602C215.99 30.9924 216.188 31.0718 216.413 31.1114V31.4552C215.752 31.4155 215.302 31.3891 215.078 31.3891C214.787 31.3891 214.179 31.4155 213.253 31.4552V31.1114C213.412 31.1114 213.531 31.085 213.623 31.0189C213.716 30.966 213.755 30.8867 213.755 30.7941C213.755 30.7148 213.716 30.6355 213.663 30.5429L211.772 27.7796C211.574 27.5019 211.389 27.3168 211.23 27.2242C211.058 27.1317 210.833 27.0788 210.543 27.0656V29.9347C210.543 30.2388 210.582 30.4768 210.648 30.6487C210.714 30.8206 210.833 30.9396 210.992 31.0057C211.151 31.0718 211.362 31.1114 211.627 31.1114V31.4552C210.701 31.4155 210.093 31.3891 209.802 31.3891C209.485 31.3891 208.811 31.4155 207.806 31.4552V31.1114C208.123 31.1114 208.361 31.0718 208.546 31.0057C208.731 30.9396 208.85 30.8206 208.943 30.6487C209.022 30.4768 209.062 30.2388 209.062 29.9347V20.534C209.062 20.0316 208.969 19.6614 208.784 19.4234C208.599 19.1986 208.268 19.0797 207.806 19.0797V18.7359C208.149 18.7623 208.493 18.7888 208.824 18.7888C209.524 18.7888 210.106 18.7094 210.529 18.5508V26.7218C210.847 26.6822 211.124 26.6028 211.336 26.4971C211.547 26.3913 211.759 26.2326 211.944 26.0343L213.16 24.7782C213.504 24.408 213.676 24.1171 213.676 23.8659C213.676 23.6676 213.57 23.5354 213.346 23.4428C213.121 23.3503 212.83 23.3106 212.46 23.3106V22.9801C213.227 23.0197 213.835 23.0462 214.311 23.0462C214.826 23.0462 215.302 23.0197 215.739 22.9801V23.3106C215.197 23.3635 214.707 23.6147 214.258 24.0775L212.261 26.1797L215.236 30.2388C215.435 30.5165 215.62 30.728 215.792 30.847L215.818 30.8602Z" fill="#D6A857"/>
<path d="M219.851 30.6487C219.93 30.8206 220.062 30.9396 220.247 31.0057C220.419 31.0718 220.67 31.1115 220.988 31.1115V31.4553C219.983 31.4156 219.322 31.3892 218.991 31.3892C218.661 31.3892 217.999 31.4156 216.995 31.4553V31.1115C217.312 31.1115 217.55 31.0718 217.735 31.0057C217.92 30.9396 218.039 30.8206 218.132 30.6487C218.211 30.4769 218.251 30.2389 218.251 29.9348V24.7915C218.251 24.2891 218.158 23.9189 217.973 23.6809C217.788 23.4561 217.457 23.3371 216.995 23.3371V22.9933C217.338 23.0198 217.682 23.0462 218.013 23.0462C218.713 23.0462 219.282 22.9669 219.718 22.8215V29.948C219.718 30.2521 219.758 30.4901 219.837 30.662L219.851 30.6487ZM219.401 19.0136C219.56 19.1062 219.692 19.2384 219.784 19.397C219.877 19.5557 219.93 19.7276 219.93 19.9259C219.93 20.1242 219.877 20.2829 219.784 20.4548C219.692 20.6134 219.56 20.7457 219.401 20.8382C219.242 20.9308 219.07 20.9836 218.872 20.9836C218.674 20.9836 218.515 20.9308 218.343 20.8382C218.185 20.7457 218.052 20.6134 217.96 20.4548C217.867 20.2961 217.814 20.111 217.814 19.9259C217.814 19.7408 217.867 19.5689 217.96 19.397C218.052 19.2384 218.185 19.1062 218.343 19.0136C218.502 18.9211 218.687 18.8682 218.872 18.8682C219.057 18.8682 219.229 18.9211 219.401 19.0136Z" fill="#D6A857"/>
<path d="M225.695 23.2314C226.184 22.914 226.739 22.7554 227.361 22.7554C228.128 22.7554 228.709 22.9669 229.106 23.3768C229.304 23.6016 229.45 23.8792 229.542 24.2098C229.635 24.5403 229.675 24.9766 229.675 25.5452V29.9348C229.675 30.2389 229.714 30.4769 229.794 30.6488C229.873 30.8206 230.005 30.9396 230.19 31.0057C230.375 31.0719 230.613 31.1115 230.931 31.1115V31.4553C229.926 31.4156 229.265 31.3892 228.961 31.3892C228.656 31.3892 228.035 31.4156 227.123 31.4553V31.1115C227.4 31.1115 227.612 31.0719 227.757 31.0057C227.916 30.9396 228.022 30.8206 228.088 30.6488C228.154 30.4769 228.194 30.2389 228.194 29.9348V25.175C228.194 24.7783 228.167 24.4478 228.101 24.1833C228.035 23.9189 227.916 23.6941 227.718 23.5355C227.519 23.3636 227.242 23.2842 226.858 23.2842C226.409 23.2842 226.012 23.4165 225.655 23.6809C225.298 23.9453 225.034 24.3023 224.835 24.7651C224.637 25.2278 224.545 25.7303 224.545 26.2856V29.948C224.545 30.2521 224.584 30.4901 224.65 30.662C224.716 30.8339 224.835 30.9529 224.994 31.019C225.153 31.0851 225.364 31.1247 225.642 31.1247V31.4685C224.716 31.4288 224.108 31.4024 223.791 31.4024C223.474 31.4024 222.826 31.4288 221.808 31.4685V31.1247C222.125 31.1247 222.363 31.0851 222.548 31.019C222.72 30.9529 222.852 30.8339 222.945 30.662C223.024 30.4901 223.064 30.2521 223.064 29.948V24.8047C223.064 24.3023 222.971 23.9321 222.786 23.6941C222.601 23.4693 222.284 23.3504 221.808 23.3504V23.0066C222.151 23.033 222.495 23.0595 222.826 23.0595C223.526 23.0595 224.095 22.9801 224.531 22.8347V24.7651C224.809 24.0643 225.192 23.5619 225.682 23.2446L225.695 23.2314Z" fill="#D6A857"/>
<path d="M238.863 30.0141C239.22 30.2521 239.392 30.6488 239.392 31.1776C239.392 31.7065 239.22 32.2221 238.876 32.751C238.533 33.2667 238.017 33.703 237.329 34.0468C236.642 34.3905 235.782 34.5624 234.791 34.5624C234.222 34.5624 233.68 34.5095 233.178 34.3905C232.675 34.2715 232.265 34.0996 231.948 33.8749C231.644 33.6501 231.485 33.3724 231.485 33.0551C231.485 32.6849 231.684 32.3147 232.08 31.9709C232.477 31.6272 232.966 31.3098 233.548 31.0454H233.495C233.072 31.0454 232.702 30.9529 232.358 30.781C232.014 30.6091 231.856 30.2786 231.856 29.7893C231.856 29.4191 232.014 29.0622 232.318 28.7184C232.636 28.3746 233.165 28.0441 233.905 27.7003C233.429 27.5152 233.046 27.2243 232.781 26.8277C232.517 26.431 232.384 25.9418 232.384 25.3468C232.384 24.4742 232.662 23.8263 233.217 23.4032C233.773 22.9669 234.513 22.7554 235.425 22.7554C235.849 22.7554 236.245 22.8083 236.589 22.9008C236.695 22.2926 236.893 21.8034 237.171 21.4332C237.462 21.063 237.845 20.8911 238.295 20.8911C238.572 20.8911 238.784 20.9704 238.929 21.1291C239.088 21.2878 239.154 21.4993 239.154 21.7505C239.154 21.9753 239.075 22.1604 238.929 22.3191C238.784 22.4645 238.599 22.5438 238.374 22.5438C238.096 22.5438 237.898 22.4645 237.766 22.2926C237.647 22.1207 237.554 21.8563 237.488 21.5125C237.329 21.658 237.184 21.9224 237.039 22.3191C236.959 22.5571 236.906 22.7818 236.867 23.0066C237.369 23.1917 237.752 23.4826 238.03 23.866C238.308 24.2627 238.453 24.7651 238.453 25.3601C238.453 25.955 238.321 26.431 238.057 26.8145C237.792 27.1979 237.435 27.4888 236.986 27.6739C236.536 27.859 236.007 27.9515 235.412 27.9515C234.963 27.9515 234.566 27.8986 234.196 27.7929C233.746 28.0309 233.416 28.2424 233.178 28.454C232.94 28.6523 232.821 28.8638 232.821 29.1018C232.821 29.2869 232.887 29.4191 233.006 29.5117C233.125 29.6042 233.323 29.6439 233.601 29.6439H237.462C238.03 29.6439 238.493 29.7629 238.85 30.0009L238.863 30.0141ZM233.125 31.7594C232.927 32.0635 232.834 32.3808 232.834 32.6981C232.834 33.0551 232.953 33.346 233.191 33.584C233.429 33.822 233.733 33.9939 234.103 34.1129C234.473 34.2186 234.857 34.2847 235.24 34.2847C235.73 34.2847 236.206 34.1922 236.668 34.0203C237.131 33.8484 237.514 33.584 237.819 33.227C238.123 32.87 238.268 32.4469 238.268 31.9577C238.268 31.7462 238.228 31.5743 238.162 31.4421C238.096 31.3098 237.964 31.2173 237.779 31.1512C237.594 31.0851 237.343 31.0454 237.012 31.0454H233.958C233.601 31.2305 233.323 31.4685 233.138 31.7726L233.125 31.7594ZM234.302 23.5751C234.05 23.9321 233.918 24.5139 233.918 25.3601C233.918 26.2063 234.05 26.788 234.302 27.145C234.553 27.502 234.923 27.6739 235.412 27.6739C235.901 27.6739 236.285 27.502 236.536 27.1582C236.787 26.8145 236.919 26.2195 236.919 25.3733C236.919 24.5271 236.787 23.9321 236.536 23.5883C236.285 23.2446 235.915 23.0727 235.412 23.0727C234.91 23.0727 234.553 23.2446 234.302 23.6016V23.5751Z" fill="#D6A857"/>
<path d="M143.23 36.5058C142.966 36.2678 142.596 36.162 142.107 36.162C141.326 36.162 140.784 36.3604 140.48 36.7438C140.705 36.7967 140.877 36.9157 141.036 37.0876C141.181 37.2727 141.26 37.4842 141.26 37.7487C141.26 38.0263 141.168 38.2511 140.996 38.4097C140.824 38.5684 140.586 38.6477 140.295 38.6477C140.018 38.6477 139.793 38.5552 139.634 38.3701C139.475 38.185 139.396 37.9338 139.396 37.6297C139.396 37.2066 139.647 36.8099 140.163 36.4529C140.427 36.281 140.758 36.1224 141.155 36.0166C141.551 35.8976 141.988 35.8447 142.464 35.8447C142.913 35.8447 143.31 35.8976 143.654 36.0034C143.997 36.1092 144.262 36.2678 144.46 36.4529C144.711 36.7041 144.883 37.0082 144.976 37.352C145.068 37.6958 145.121 38.1585 145.121 38.7667V43.3415C145.121 43.6191 145.161 43.8174 145.24 43.9364C145.319 44.0554 145.452 44.1215 145.624 44.1215C145.756 44.1215 145.875 44.0951 145.994 44.029C146.1 43.9629 146.232 43.8835 146.364 43.7645L146.549 44.0422C146.351 44.1876 146.192 44.2934 146.073 44.386C145.941 44.4653 145.795 44.5314 145.637 44.5711C145.465 44.624 145.28 44.6372 145.055 44.6372C144.526 44.6372 144.156 44.505 143.944 44.2405C143.733 43.9761 143.64 43.6191 143.64 43.1828C143.323 43.7117 142.926 44.0951 142.477 44.3066C142.027 44.5314 141.564 44.6372 141.102 44.6372C140.718 44.6372 140.375 44.5711 140.057 44.4389C139.74 44.3066 139.489 44.1083 139.304 43.8307C139.118 43.553 139.013 43.2092 139.013 42.7994C139.013 42.3895 139.118 42.0193 139.317 41.7284C139.515 41.4375 139.806 41.1731 140.176 40.9483C140.546 40.7235 141.036 40.4856 141.657 40.2211C141.763 40.1815 142.027 40.0757 142.45 39.9038C142.873 39.7319 143.164 39.56 143.349 39.3882C143.535 39.2163 143.627 39.0312 143.627 38.8196V37.8015C143.627 37.1669 143.495 36.7306 143.23 36.4926V36.5058ZM143.23 39.8641C143.045 39.9699 142.649 40.1682 142.054 40.4591C141.736 40.6046 141.472 40.7632 141.247 40.9219C141.022 41.0805 140.837 41.2921 140.692 41.5565C140.533 41.821 140.454 42.1515 140.454 42.5482C140.454 43.0241 140.573 43.3811 140.811 43.6323C141.049 43.8703 141.366 44.0025 141.763 44.0025C142.49 44.0025 143.111 43.5927 143.614 42.7597V39.5336C143.535 39.6526 143.402 39.7716 143.217 39.8774L143.23 39.8641Z" fill="#D6A857"/>
<path d="M154.258 43.0903C154.615 43.3283 154.786 43.725 154.786 44.2538C154.786 44.7827 154.615 45.2984 154.271 45.814C153.927 46.3297 153.411 46.766 152.724 47.1097C152.036 47.4535 151.177 47.6254 150.185 47.6254C149.617 47.6254 149.075 47.5725 148.572 47.4535C148.07 47.3345 147.66 47.1626 147.343 46.9379C147.025 46.7131 146.88 46.4354 146.88 46.1181C146.88 45.7479 147.078 45.3777 147.475 45.0339C147.872 44.6769 148.361 44.3728 148.942 44.1084H148.89C148.466 44.1084 148.096 44.0158 147.753 43.844C147.409 43.6721 147.237 43.3415 147.237 42.8523C147.237 42.4821 147.396 42.1251 147.7 41.7814C148.017 41.4376 148.546 41.1071 149.286 40.7633C148.81 40.5782 148.427 40.2873 148.162 39.8907C147.898 39.494 147.766 39.0048 147.766 38.4098C147.766 37.5372 148.043 36.8893 148.599 36.4662C149.154 36.0299 149.894 35.8184 150.807 35.8184C151.23 35.8184 151.626 35.8713 151.97 35.9638C152.076 35.3556 152.274 34.8664 152.552 34.4962C152.843 34.126 153.226 33.9541 153.676 33.9541C153.954 33.9541 154.165 34.0334 154.311 34.1921C154.469 34.3508 154.535 34.5623 154.535 34.8135C154.535 35.0383 154.456 35.2234 154.311 35.3688C154.165 35.5143 153.967 35.5936 153.742 35.5936C153.464 35.5936 153.266 35.5143 153.134 35.3424C153.015 35.1705 152.922 34.9061 152.856 34.5623C152.697 34.7077 152.552 34.9722 152.42 35.3688C152.34 35.6068 152.288 35.8448 152.248 36.0564C152.75 36.2415 153.134 36.5323 153.411 36.9158C153.689 37.3124 153.835 37.8148 153.835 38.4098C153.835 39.0048 153.702 39.4808 153.438 39.8642C153.173 40.2477 152.816 40.5385 152.367 40.7236C151.917 40.9087 151.388 41.0013 150.794 41.0013C150.344 41.0013 149.947 40.9484 149.577 40.8426C149.128 41.0806 148.797 41.2922 148.559 41.5037C148.321 41.702 148.202 41.9136 148.202 42.1516C148.202 42.3367 148.268 42.4689 148.387 42.5615C148.506 42.654 148.718 42.6937 148.995 42.6937H152.856C153.425 42.6937 153.887 42.8127 154.244 43.0507L154.258 43.0903ZM148.519 44.8356C148.321 45.1397 148.229 45.457 148.229 45.7743C148.229 46.1313 148.347 46.4222 148.585 46.6602C148.823 46.8982 149.128 47.0701 149.498 47.1758C149.868 47.2948 150.251 47.3477 150.635 47.3477C151.124 47.3477 151.6 47.2552 152.063 47.0833C152.526 46.9114 152.909 46.647 153.213 46.3032C153.517 45.9462 153.663 45.5231 153.663 45.0339C153.663 44.8224 153.623 44.6505 153.557 44.5183C153.491 44.3861 153.359 44.2935 153.173 44.2274C152.988 44.1613 152.737 44.1216 152.407 44.1216H149.339C148.982 44.3067 148.718 44.5447 148.519 44.8488V44.8356ZM149.696 36.6513C149.445 37.0083 149.313 37.5901 149.313 38.4363C149.313 39.2825 149.445 39.8642 149.696 40.2212C149.947 40.565 150.318 40.7501 150.807 40.7501C151.296 40.7501 151.679 40.5782 151.931 40.2344C152.182 39.8907 152.314 39.2957 152.314 38.4495C152.314 37.6033 152.182 37.0083 151.931 36.6646C151.679 36.3208 151.309 36.1357 150.807 36.1357C150.304 36.1357 149.947 36.3076 149.696 36.6646V36.6513Z" fill="#D6A857"/>
<path d="M162.085 43.6456C161.807 43.9761 161.45 44.2538 161.027 44.4653C160.604 44.6769 160.141 44.7826 159.612 44.7826C158.832 44.7826 158.158 44.6107 157.59 44.2538C157.021 43.8968 156.585 43.3943 156.281 42.7465C155.976 42.0986 155.831 41.3582 155.831 40.512C155.831 39.56 155.99 38.7271 156.294 38.0263C156.598 37.3256 157.034 36.7835 157.59 36.4133C158.145 36.0298 158.806 35.8447 159.56 35.8447C160.551 35.8447 161.305 36.1488 161.834 36.7438C162.363 37.3388 162.627 38.2511 162.627 39.4675H157.484C157.444 39.7451 157.431 40.1021 157.431 40.5252C157.431 41.2524 157.55 41.8871 157.788 42.4159C158.026 42.958 158.343 43.3679 158.727 43.6588C159.11 43.9497 159.52 44.0951 159.943 44.0951C161.04 44.0951 161.847 43.5398 162.363 42.4424L162.693 42.5746C162.561 42.958 162.363 43.315 162.085 43.6588V43.6456ZM160.921 37.6297C160.816 37.1801 160.631 36.8099 160.393 36.5455C160.155 36.281 159.85 36.1488 159.507 36.1488C159.163 36.1488 158.859 36.2546 158.581 36.4794C158.304 36.6909 158.052 37.0347 157.867 37.471C157.669 37.9205 157.55 38.4759 157.497 39.1369H161.08C161.107 38.5948 161.054 38.0924 160.948 37.6297H160.921Z" fill="#D6A857"/>
<path d="M167.757 36.3075C168.247 35.9902 168.802 35.8315 169.423 35.8315C170.19 35.8315 170.772 36.0431 171.169 36.453C171.367 36.6777 171.512 36.9554 171.605 37.2859C171.697 37.6165 171.737 38.0528 171.737 38.6213V43.0109C171.737 43.315 171.777 43.553 171.856 43.7249C171.935 43.8968 172.068 44.0158 172.253 44.0819C172.438 44.148 172.676 44.1877 172.993 44.1877V44.5315C171.988 44.4918 171.327 44.4653 171.023 44.4653C170.719 44.4653 170.098 44.4918 169.185 44.5315V44.1877C169.463 44.1877 169.674 44.148 169.82 44.0819C169.979 44.0158 170.084 43.8968 170.15 43.7249C170.217 43.553 170.256 43.315 170.256 43.0109V38.2511C170.256 37.8545 170.23 37.5239 170.164 37.2595C170.098 36.9951 169.979 36.7703 169.78 36.6116C169.582 36.453 169.304 36.3604 168.921 36.3604C168.471 36.3604 168.075 36.4926 167.718 36.7571C167.361 37.0215 167.096 37.3785 166.898 37.8412C166.7 38.304 166.607 38.8064 166.607 39.3617V43.0242C166.607 43.3283 166.647 43.5663 166.713 43.7381C166.779 43.91 166.898 44.029 167.057 44.0951C167.215 44.1612 167.427 44.2009 167.704 44.2009V44.5447C166.779 44.505 166.171 44.4786 165.853 44.4786C165.536 44.4786 164.888 44.505 163.87 44.5447V44.2009C164.187 44.2009 164.425 44.1612 164.611 44.0951C164.782 44.029 164.915 43.91 165.007 43.7381C165.087 43.5663 165.126 43.3283 165.126 43.0242V37.8677C165.126 37.3653 165.034 36.9818 164.849 36.7571C164.663 36.5323 164.346 36.4133 163.87 36.4133V36.0695C164.214 36.096 164.558 36.1224 164.888 36.1224C165.589 36.1224 166.157 36.0431 166.594 35.8977V37.828C166.871 37.1273 167.255 36.6248 167.744 36.3075H167.757Z" fill="#D6A857"/>
<path d="M180.093 43.5795C179.842 43.9233 179.498 44.2142 179.088 44.4257C178.678 44.6505 178.189 44.7563 177.634 44.7563C176.946 44.7563 176.325 44.5844 175.783 44.2274C175.227 43.8704 174.791 43.368 174.474 42.7069C174.156 42.0458 173.998 41.2789 173.998 40.3931C173.998 39.5072 174.156 38.7139 174.487 38.0132C174.817 37.3256 175.267 36.7835 175.849 36.4001C176.43 36.0167 177.091 35.8184 177.832 35.8184C178.572 35.8184 179.207 35.9902 179.749 36.3472C180.265 36.691 180.516 37.1141 180.516 37.6165C180.516 37.9074 180.437 38.1322 180.265 38.2908C180.106 38.4495 179.894 38.542 179.643 38.542C179.392 38.542 179.167 38.4627 178.995 38.3173C178.823 38.1718 178.731 37.9735 178.731 37.7091C178.731 37.4711 178.797 37.2728 178.929 37.1141C179.061 36.9554 179.22 36.8497 179.418 36.7968C179.313 36.5984 179.114 36.4398 178.837 36.3076C178.559 36.1753 178.255 36.1092 177.951 36.1092C177.554 36.1092 177.171 36.2415 176.814 36.4927C176.457 36.7439 176.166 37.1802 175.941 37.7752C175.716 38.3702 175.597 39.1635 175.597 40.1419C175.597 41.5037 175.822 42.4953 176.258 43.1168C176.695 43.7382 177.263 44.0423 177.977 44.0423C178.44 44.0423 178.89 43.9101 179.313 43.6324C179.736 43.3548 180.093 42.9317 180.357 42.3499L180.675 42.4557C180.556 42.8523 180.357 43.2093 180.106 43.5663L180.093 43.5795Z" fill="#D6A857"/>
<path d="M188.118 36.109C188.607 36.109 189.017 36.0958 189.374 36.0562V36.3867C189.149 36.4131 188.964 36.5189 188.792 36.6776C188.62 36.8495 188.462 37.1403 188.316 37.537L185.619 44.6106L185.064 46.0386C184.852 46.5807 184.614 46.9641 184.363 47.2021C184.046 47.4797 183.623 47.6252 183.081 47.6252C182.75 47.6252 182.486 47.5326 182.274 47.3607C182.062 47.1889 181.957 46.9376 181.957 46.6335C181.957 46.3691 182.036 46.1576 182.195 45.9989C182.353 45.8402 182.565 45.7609 182.843 45.7609C183.081 45.7609 183.279 45.827 183.438 45.9592C183.596 46.0915 183.676 46.2766 183.676 46.5278C183.676 46.8583 183.53 47.0963 183.239 47.2682C183.266 47.2682 183.292 47.2814 183.332 47.2814C183.94 47.2814 184.403 46.8583 184.733 45.9989L185.315 44.4916L182.327 37.3122C182.142 36.9288 181.957 36.6776 181.772 36.5718C181.587 36.4528 181.401 36.3999 181.216 36.3999V36.0562C181.732 36.1223 182.274 36.1619 182.829 36.1619C183.305 36.1619 184.019 36.1223 184.971 36.0562V36.3999C184.707 36.3999 184.495 36.3999 184.35 36.4264C184.204 36.4396 184.072 36.4925 183.98 36.585C183.874 36.6644 183.834 36.7966 183.834 36.9685C183.834 37.1668 183.9 37.4444 184.046 37.775L186.029 42.6935L187.84 37.9336C187.959 37.6163 188.012 37.3651 188.012 37.18C188.012 36.9288 187.92 36.7305 187.721 36.6115C187.523 36.4925 187.219 36.4131 186.783 36.3867V36.0562C187.364 36.0826 187.827 36.109 188.158 36.109H188.118Z" fill="#D6A857"/>
<defs>
<linearGradient id="paint0_linear_512_288" x1="98.6077" y1="65.3294" x2="98.6077" y2="-4.53432" gradientUnits="userSpaceOnUse">
<stop stop-color="#C69970"/>
<stop offset="1" stop-color="#CFA953"/>
</linearGradient>
</defs>
</svg>
